<svg width="162" height="158" viewBox="0 0 162 158" fill="none" xmlns="http://www.w3.org/2000/svg">
<path fill-rule="evenodd" clip-rule="evenodd" d="M81.4786 0.580071C37.016 0.580071 0.961304 36.6281 0.961304 81.0974C0.961304 116.672 24.032 146.853 56.024 157.5C60.048 158.245 61.5253 155.753 61.5253 153.627C61.5253 151.707 61.4507 145.364 61.416 138.636C39.016 143.507 34.2893 129.136 34.2893 129.136C30.6266 119.829 25.3493 117.355 25.3493 117.355C18.044 112.357 25.9 112.46 25.9 112.46C33.9853 113.027 38.2426 120.759 38.2426 120.759C45.424 133.067 57.0786 129.508 61.6733 127.451C62.396 122.247 64.4826 118.693 66.7853 116.684C48.9013 114.648 30.1013 107.744 30.1013 76.892C30.1013 68.1014 33.2466 60.9187 38.3973 55.2801C37.5613 53.2507 34.8053 45.0627 39.1773 33.9721C39.1773 33.9721 45.9386 31.808 61.3253 42.2254C67.748 40.4414 74.636 39.5467 81.4786 39.5161C88.3213 39.5467 95.2147 40.4414 101.649 42.2254C117.017 31.808 123.769 33.9721 123.769 33.9721C128.152 45.0627 125.395 53.2507 124.559 55.2801C129.721 60.9187 132.845 68.1014 132.845 76.892C132.845 107.817 114.009 114.627 96.08 116.62C98.968 119.119 101.541 124.019 101.541 131.531C101.541 142.304 101.448 150.975 101.448 153.627C101.448 155.769 102.897 158.28 106.979 157.489C138.953 146.831 161.995 116.66 161.995 81.0974C161.995 36.6281 125.945 0.580071 81.4786 0.580071" fill="#1B1817"/>
</svg>
