<svg width="64" height="51" viewBox="0 0 64 51" fill="none" xmlns="http://www.w3.org/2000/svg">
<g clip-path="url(#clip0_404_44)">
<path d="M4.36364 50.2289H14.5455V24.3534L0 12.9377V45.6626C0 48.1893 1.95636 50.2289 4.36364 50.2289Z" fill="#4285F4"/>
<path d="M49.4545 50.2289H59.6364C62.0509 50.2289 64 48.1817 64 45.6626V12.9377L49.4545 24.3534" fill="#34A853"/>
<path d="M49.4545 4.56628V24.3534L64 12.9378V6.84941C64 1.20246 57.84 -2.01675 53.5273 1.36989" fill="#FBBC04"/>
<path d="M14.5455 24.3533V4.56616L32 18.265L49.4545 4.56616V24.3533L32 38.0521" fill="#EA4335"/>
<path d="M0 6.84941V12.9378L14.5455 24.3534V4.56628L10.4727 1.36989C6.15273 -2.01675 0 1.20246 0 6.84941Z" fill="#C5221F"/>
</g>
<defs>
<clipPath id="clip0_404_44">
<rect width="64" height="50.2289" fill="white"/>
</clipPath>
</defs>
</svg>
