<svg width="200" height="200" viewBox="0 0 200 200" fill="none" xmlns="http://www.w3.org/2000/svg">
<path d="M30.201 0.0112305H169.799C186.479 0.0112305 200 13.5327 200 30.2122V169.79C200 186.47 186.479 199.991 169.799 199.991H30.201C13.5215 199.991 0 186.47 0 169.79V30.2122C0 13.5327 13.5215 0.0112305 30.201 0.0112305Z" fill="#006699"/>
<path opacity="0.781116" d="M147.16 8.56128H52.84C27.873 8.56128 7.77399 28.8243 7.77399 53.9943V146.014C8.58213 165.661 11.6907 153.241 17.6077 131.483C24.4845 106.196 46.8807 84.0953 74.1547 67.5313C94.9717 54.8893 118.274 46.8163 160.688 46.0483C184.742 45.6127 182.619 14.8303 147.161 8.56128H147.16Z" fill="url(#paint0_linear_404_12)"/>
<path d="M63.992 167.85V76.966H33.784V167.85H63.992ZM48.892 64.55C59.426 64.55 65.983 57.5711 65.983 48.85C65.7867 39.9321 59.4264 33.147 49.092 33.147C38.759 33.147 32.002 39.9322 32.002 48.85C32.002 57.5716 38.5573 64.55 48.695 64.55H48.8913H48.892Z" fill="white"/>
<path d="M80.712 167.85H110.92V117.096C110.92 114.38 111.116 111.666 111.914 109.725C114.098 104.297 119.068 98.6765 127.413 98.6765C138.344 98.6765 142.717 107.011 142.717 119.229V167.85H172.923V115.738C172.923 87.8215 158.02 74.8325 138.145 74.8325C121.849 74.8325 114.694 83.9414 110.719 90.1455H110.921V76.9645H80.7127C81.1091 85.4925 80.7127 167.849 80.7127 167.849L80.712 167.85Z" fill="white"/>
<defs>
<linearGradient id="paint0_linear_404_12" x1="25.0493" y1="-20.5261" x2="51.0726" y2="55.3241" gradientUnits="userSpaceOnUse">
<stop stop-color="white"/>
<stop offset="1" stop-color="white" stop-opacity="0"/>
</linearGradient>
</defs>
</svg>
