<svg width="694" height="643" viewBox="0 0 694 643" fill="none" xmlns="http://www.w3.org/2000/svg">
<g clip-path="url(#clip0_6_56)">
<path d="M588.65 -63.5639C733.194 -43.5005 767.916 46.7532 834.081 60.8397C933.028 81.907 1038.77 97.9603 1015.49 224.372C992.206 350.783 933.028 382.887 954.372 491.24C975.713 599.593 1018.33 663.852 943.7 720.99C901.067 753.628 854.328 746.721 798.427 739.815C756.385 734.62 709.164 729.426 654.614 741.053C527.536 768.141 379.115 809.274 144.355 728.012C-90.4045 646.746 71.5989 524.348 61.8985 429.039C52.1981 333.728 -34.8662 301.037 15.6584 189.928C126.313 -53.4236 487.625 -77.5892 588.65 -63.5639Z" fill="#FFE1E1"/>
<path d="M542.599 -75.447C485.207 -75.447 403.113 -67.4426 320.642 -42.869C223.859 -14.0316 96.3442 47.1235 38.4857 174.701C8.44144 240.948 28.3132 277.161 51.324 319.092C65.5101 344.947 80.1814 371.683 83.8483 407.809C86.7203 436.101 74.8454 465.869 62.2723 497.386C46.266 537.515 29.7111 579.014 46.3575 616.871C60.8601 649.852 99.0213 676.68 163.025 698.891C377.552 773.353 515.39 743.258 636.998 716.702C644.927 714.971 652.757 713.259 660.508 711.605C716.133 699.712 764.032 705.674 806.29 710.937C857.818 717.349 902.329 722.885 942.149 692.323C997.743 649.649 985.632 603.745 967.303 534.257C962.206 514.938 956.432 493.037 951.787 469.394C939.193 405.297 954.796 368.617 974.544 322.183C987.594 291.504 1002.38 256.734 1011.49 207.141C1021.2 154.303 1009.01 118.207 973.154 93.5485C941.3 71.6396 894.308 61.7461 848.868 52.1779C844.524 51.2645 840.181 50.3488 835.852 49.4255C810.196 43.9482 789.377 27.0062 765.273 7.38934C728.105 -22.8567 681.847 -60.4966 596.198 -72.4193C582.842 -74.2784 564.519 -75.447 542.599 -75.447ZM421.609 749.863C337.773 749.863 252.592 734.465 161.722 702.928C96.5826 680.318 57.6262 652.747 42.6257 618.633C25.2414 579.096 42.1392 536.732 58.4838 495.762C70.8499 464.758 82.5324 435.472 79.7685 408.257C76.1914 373.011 61.7368 346.671 47.76 321.197C25.1659 280.024 3.82555 241.133 34.7739 172.892C59.9816 117.311 100.32 69.4852 154.674 30.7419C200.391 -1.84613 255.85 -27.9886 319.511 -46.9574C434.082 -81.0943 548.074 -83.4088 596.743 -76.6329C683.502 -64.5576 730.245 -26.5199 767.804 4.04639C791.503 23.3305 811.965 39.9824 836.677 45.2594C841.006 46.1827 845.345 47.0985 849.684 48.0118C942.084 67.466 1037.63 87.5833 1015.52 207.937C1006.32 258.007 991.433 293.012 978.299 323.897C958.84 369.641 943.471 405.774 955.805 468.543C960.423 492.049 966.178 513.878 971.26 533.134C989.36 601.755 1002.44 651.333 944.586 695.741C903.458 727.311 858.204 721.681 805.8 715.158C763.854 709.936 716.31 704.024 661.333 715.768C653.59 717.423 645.764 719.131 637.842 720.863C579.381 733.629 513.114 748.097 435.928 749.712C431.16 749.813 426.385 749.863 421.609 749.863Z" fill="#F2F1F7"/>
<path d="M530.211 350.317L528.69 349.926C558.584 226.675 586.512 154.753 622.078 109.434L623.299 110.444C587.884 155.568 560.045 227.303 530.211 350.317Z" fill="#58857A"/>
<path d="M605.754 133.476C607.346 120.712 617.71 91.297 632.487 93.3383C647.267 95.3818 630.513 116.858 618.588 125.094C610.599 130.611 605.754 133.476 605.754 133.476Z" fill="#58857A"/>
<path d="M592.486 157.174C598.59 145.711 610.601 134.995 625.743 134.488C634.641 134.191 637.707 151.899 616.689 151.803C601.221 151.733 592.486 157.174 592.486 157.174Z" fill="#58857A"/>
<path d="M593.172 156.039C599.067 130.295 591.903 111.248 580.885 113.48C569.87 115.715 576.236 131.975 583.151 138.257C590.065 144.54 593.172 156.039 593.172 156.039Z" fill="#58857A"/>
<path d="M579.796 184.528C593.269 164.594 609.46 162.292 616.78 166.78C624.097 171.266 622.382 185.604 607.063 182.873C590.826 179.979 579.796 184.528 579.796 184.528Z" fill="#58857A"/>
<path d="M567.6 216.254C593.794 189.674 616.18 200.551 614.343 209.048C612.501 217.544 599.6 215.127 588.843 213.835C578.086 212.541 567.6 216.254 567.6 216.254Z" fill="#58857A"/>
<path d="M556.961 248.396C584.527 219.545 609.462 225.037 611.575 235.569C613.685 246.098 605.386 248.143 585.462 243.186C565.318 238.174 556.961 248.396 556.961 248.396Z" fill="#58857A"/>
<path d="M580.118 183.862C585.222 146.986 562.817 137.306 555.086 147.368C547.357 157.429 568.669 164.24 572.979 172.304C577.286 180.365 580.118 183.862 580.118 183.862Z" fill="#58857A"/>
<path d="M568.526 213.943C569.146 195 559.913 171.714 546.975 171.69C534.038 171.667 535.447 186.024 545.253 190.899C559.921 198.188 568.526 213.943 568.526 213.943Z" fill="#58857A"/>
<path d="M546.374 285.645C556.543 268.434 588.676 255.789 601.333 267.961C613.989 280.134 595.074 287.663 579.389 283.23C563.702 278.795 546.374 285.645 546.374 285.645Z" fill="#58857A"/>
<path d="M534.841 328.093C551.578 299.758 586.371 298.555 599.753 312.641C613.138 326.729 588.996 331.735 568.803 323.461C548.606 315.189 534.841 328.093 534.841 328.093Z" fill="#58857A"/>
<path d="M557.548 244.177C550.892 204.161 527.299 200.734 521.391 210.506C515.484 220.277 557.548 244.177 557.548 244.177Z" fill="#58857A"/>
<path d="M545.293 285.095C547.275 255.122 522.875 233.332 510.105 241.765C497.335 250.197 523.055 260.608 530.056 266.969C537.059 273.331 545.293 285.095 545.293 285.095Z" fill="#58857A"/>
<path d="M534.728 328.021C527.146 297.327 498.395 266.475 488.066 281.21C478.93 294.248 493.569 299.877 517.4 307.474C530.563 311.669 534.728 328.021 534.728 328.021Z" fill="#58857A"/>
<path d="M535.16 355.764L533.756 355.049C566.007 288.527 593.598 243.418 620.585 213.095C645.909 184.641 672.134 167.287 705.616 156.828L706.071 158.369C639.799 179.071 596.674 228.88 535.16 355.764Z" fill="#76A699"/>
<path d="M679.662 167.669C697.773 144.722 717.878 143.432 719.196 154.986C721.042 171.149 679.662 167.669 679.662 167.669Z" fill="#76A699"/>
<path d="M657.166 180.732C687.244 177.978 702.34 185.984 701.817 195.159C701.294 204.335 693.42 204.636 677.624 194.413C661.827 184.187 657.166 180.732 657.166 180.732Z" fill="#76A699"/>
<path d="M659.845 178.897C670.513 162.808 671.472 139.409 655.341 139.606C639.21 139.803 657.371 160.463 659.13 166.835C660.802 172.898 659.845 178.897 659.845 178.897Z" fill="#76A699"/>
<path d="M629.893 204.292C657.929 189.598 687.327 200.433 682.328 216.749C677.332 233.064 663.739 212.963 652.517 209.196C641.293 205.43 629.893 204.292 629.893 204.292Z" fill="#76A699"/>
<path d="M619.475 159.461C633.391 154.237 647.424 180.49 631.289 202.763C631.289 202.763 632.773 188.883 619.364 178.084C605.955 167.285 613.588 161.673 619.475 159.461Z" fill="#76A699"/>
<path d="M597.707 243.252C613.615 220.833 642.269 223.295 652.368 234.887C662.472 246.48 651.978 253.974 643.633 253.495C635.29 253.013 628.5 243.21 616.158 242.596C603.811 241.983 597.707 243.252 597.707 243.252Z" fill="#76A699"/>
<path d="M604.421 233.185C613.359 206.973 604.105 185.927 587.434 190.133C570.763 194.338 595.859 208.394 599.621 217.235C603.381 226.077 604.421 233.185 604.421 233.185Z" fill="#76A699"/>
<path d="M576.276 275.848C619.69 251.294 640.282 271.502 634.889 283.538C629.498 295.574 608.842 280.96 600.57 277.467C590.067 273.03 576.276 275.848 576.276 275.848Z" fill="#76A699"/>
<path d="M554.623 315.556C612.685 271.084 652.827 334.2 591.367 318.661C570.397 313.358 554.623 315.556 554.623 315.556Z" fill="#76A699"/>
<path d="M560.837 303.722C561.515 276.113 535.871 249.461 524.748 265.261C513.627 281.059 547.384 288.062 552.779 294.721C558.172 301.38 560.837 303.722 560.837 303.722Z" fill="#76A699"/>
<path d="M576.276 275.848C584.445 266.227 584.296 226.489 563.357 222.172C542.417 217.856 555.285 245.393 563.514 255.148C571.745 264.905 576.276 275.848 576.276 275.848Z" fill="#76A699"/>
<path d="M539.709 345.941C573.01 322.319 595.171 363.31 556.955 347.017C547.781 343.106 539.709 345.941 539.709 345.941Z" fill="#76A699"/>
<path d="M543.267 337.33C547.023 317.483 531.294 299.487 520.575 309.819C509.855 320.153 539.375 326.631 541.661 332.197C543.947 337.763 543.267 337.33 543.267 337.33Z" fill="#76A699"/>
<path d="M526.425 348.248L524.862 348.11C528.303 307.336 517.303 218.47 451.039 173.963L451.897 172.618C518.783 217.538 529.893 307.143 526.425 348.248Z" fill="#9FC7BD"/>
<path d="M568.115 358.469L567.276 357.111C616.947 324.881 682.27 334.606 682.924 334.707L682.688 336.297C682.043 336.199 617.28 326.57 568.115 358.469Z" fill="#58857A"/>
<path d="M651.856 333.958C671.939 324.159 684.052 322.699 691.097 333.604C698.137 344.507 681.14 346.024 669.812 341.568C658.483 337.11 651.856 333.958 651.856 333.958Z" fill="#58857A"/>
<path d="M618.727 337.517C650.909 339.512 669.664 355.388 665.004 370.775C660.345 386.161 647.252 358.005 638.848 349.877C630.445 341.75 618.727 337.517 618.727 337.517Z" fill="#58857A"/>
<path d="M590.299 345.778C615.207 346.571 637.573 367.22 637.672 378.726C637.771 390.236 616.286 390.849 606.498 372.052C596.713 353.256 590.299 345.778 590.299 345.778Z" fill="#58857A"/>
<path d="M621.598 337.205C642.974 330.801 640.444 309.046 631.315 300.249C622.177 291.436 614.705 296.726 618.27 309.178C620.546 317.112 628.014 321.725 624.885 330.559C623.194 335.333 621.598 337.205 621.598 337.205Z" fill="#58857A"/>
<path d="M590.545 345.95C602.691 338.858 609.086 305.471 590.47 296.586C573.454 288.465 568.105 304.009 582.888 319.571C592.61 329.806 590.545 345.95 590.545 345.95Z" fill="#58857A"/>
<path d="M465.328 184.378C460.436 174.814 440.011 154.067 438.605 165.74C437.2 177.416 465.328 184.378 465.328 184.378Z" fill="#9FC7BD"/>
<path d="M486.292 205.791C478.146 196.412 470.134 165.522 487.229 169.965C504.319 174.409 486.292 205.791 486.292 205.791Z" fill="#9FC7BD"/>
<path d="M486.292 205.791C465.138 198.196 441.913 190.652 445.648 205.116C449.383 219.583 486.292 205.791 486.292 205.791Z" fill="#9FC7BD"/>
<path d="M502.633 231.993C498.368 204.38 513.268 187.523 525.387 196.694C537.502 205.863 502.633 231.993 502.633 231.993Z" fill="#9FC7BD"/>
<path d="M507.054 241.82C494.801 230.147 465.936 216.35 461.213 231.955C456.49 247.558 507.054 241.82 507.054 241.82Z" fill="#9FC7BD"/>
<path d="M514.386 261.238C525.037 234.665 536.611 219.8 546.291 229.109C555.971 238.416 514.386 261.238 514.386 261.238Z" fill="#9FC7BD"/>
<path d="M515.461 265.306C497.529 254.849 466.449 244.718 465.605 260.135C464.764 275.551 515.461 265.306 515.461 265.306Z" fill="#9FC7BD"/>
<path d="M522.842 293.216C526.751 267.663 551.041 249.296 557.958 264.34C564.876 279.383 522.842 293.216 522.842 293.216Z" fill="#9FC7BD"/>
<path d="M522.427 295.85C500.386 287.126 464.394 272.656 467.61 291.871C470.831 311.083 522.427 295.85 522.427 295.85Z" fill="#9FC7BD"/>
<path d="M525.05 312.026C533.332 297.804 564.729 286.379 569.7 303.083C574.672 319.788 525.05 312.026 525.05 312.026Z" fill="#9FC7BD"/>
<path d="M525.616 326.406C522.615 320.465 488.38 300.749 484.564 314.595C480.746 328.439 525.616 326.406 525.616 326.406Z" fill="#9FC7BD"/>
<path d="M343.593 386.819C331.647 260.648 314.352 185.496 285.765 135.53L287.117 134.715C315.826 184.895 333.183 260.243 345.154 386.664L343.593 386.819Z" fill="#58857A"/>
<path d="M299.833 160.953C300.079 148.088 294.027 117.431 279.117 117.228C264.207 117.024 277.712 140.79 288.332 150.732C295.447 157.393 299.833 160.953 299.833 160.953Z" fill="#58857A"/>
<path d="M309.573 186.391C305.17 174.135 294.819 161.726 279.913 158.946C271.153 157.312 265.595 174.368 286.397 177.439C301.708 179.697 309.573 186.391 309.573 186.391Z" fill="#58857A"/>
<path d="M309.057 185.167C306.899 158.812 316.707 141.049 327.286 144.917C337.865 148.786 329.243 163.911 321.506 169.085C313.772 174.258 309.057 185.167 309.057 185.167Z" fill="#58857A"/>
<path d="M318.22 215.363C307.738 193.615 292.051 188.9 284.171 192.238C276.289 195.576 275.94 210.016 291.482 209.621C307.959 209.201 318.22 215.363 318.22 215.363Z" fill="#58857A"/>
<path d="M325.752 248.581C303.637 218.344 279.938 225.735 280.543 234.418C281.151 243.099 294.26 242.65 305.086 242.989C315.909 243.329 325.752 248.581 325.752 248.581Z" fill="#58857A"/>
<path d="M331.687 281.974C308.538 249.287 283.086 250.968 279.495 261.066C275.903 271.165 283.822 274.437 304.236 272.531C324.88 270.604 331.687 281.974 331.687 281.974Z" fill="#58857A"/>
<path d="M317.994 214.654C318.214 177.407 341.757 171.202 347.969 182.319C354.178 193.436 332.123 196.965 326.707 204.292C321.293 211.62 317.994 214.654 317.994 214.654Z" fill="#58857A"/>
<path d="M325.165 246.155C327.259 227.322 339.717 205.676 352.519 207.601C365.318 209.525 361.874 223.516 351.479 226.86C335.928 231.863 325.165 246.155 325.165 246.155Z" fill="#58857A"/>
<path d="M336.84 320.414C329.239 301.859 299.259 284.514 285 294.651C270.744 304.79 288.378 315.081 304.53 313.057C320.68 311.032 336.84 320.414 336.84 320.414Z" fill="#58857A"/>
<path d="M342.187 364.139C329.677 333.591 295.435 327.168 280.184 339.087C264.933 351.006 288.099 359.592 309.255 354.448C330.413 349.302 342.187 364.139 342.187 364.139Z" fill="#58857A"/>
<path d="M331.707 277.713C344.006 239.131 367.833 239.29 372.284 249.847C376.732 260.402 331.707 277.713 331.707 277.713Z" fill="#58857A"/>
<path d="M337.989 320.034C340.311 290.086 367.554 272.205 378.983 282.466C390.412 292.728 363.482 299.156 355.648 304.397C347.814 309.636 337.989 320.034 337.989 320.034Z" fill="#58857A"/>
<path d="M342.309 364.086C354.193 334.864 387.038 308.673 395.152 324.804C402.326 339.072 387.043 342.44 362.385 346.368C348.765 348.539 342.309 364.086 342.309 364.086Z" fill="#58857A"/>
<path d="M337.919 391.464C295.191 256.695 259.643 200.931 197.043 170.481L197.714 169.027C229.34 184.41 252.804 205.521 273.79 237.478C296.158 271.538 317.011 320.31 339.411 390.968L337.919 391.464Z" fill="#76A699"/>
<path d="M221.839 183.656C207.2 158.231 187.498 153.929 184.542 165.159C180.409 180.87 221.839 183.656 221.839 183.656Z" fill="#76A699"/>
<path d="M242.226 199.964C212.868 192.713 196.79 198.36 195.998 207.516C195.205 216.67 202.951 218.153 220.037 210.417C237.123 202.678 242.226 199.964 242.226 199.964Z" fill="#76A699"/>
<path d="M239.839 197.742C231.583 180.223 233.975 156.932 249.905 159.555C265.834 162.178 244.918 179.881 242.268 185.923C239.748 191.667 239.839 197.742 239.839 197.742Z" fill="#76A699"/>
<path d="M265.84 227.371C240.207 208.619 209.577 214.911 212.192 231.802C214.805 248.695 231.12 230.856 242.762 228.818C254.401 226.781 265.84 227.371 265.84 227.371Z" fill="#76A699"/>
<path d="M282.546 184.594C269.528 177.333 251.9 201.188 264.679 225.65C264.679 225.65 265.193 211.696 279.998 203.032C294.804 194.368 288.057 187.667 282.546 184.594Z" fill="#76A699"/>
<path d="M292.115 270.755C279.582 246.183 250.887 244.307 239.237 254.255C227.59 264.203 236.902 273.196 245.224 273.974C253.546 274.755 261.661 266.078 273.96 267.33C286.259 268.582 292.115 270.755 292.115 270.755Z" fill="#76A699"/>
<path d="M286.912 259.787C281.813 232.513 293.973 213.088 309.863 219.755C325.754 226.425 298.92 236.551 293.938 244.731C288.956 252.911 286.912 259.787 286.912 259.787Z" fill="#76A699"/>
<path d="M308.662 306.222C269.222 275.402 245.966 292.293 249.581 305.01C253.196 317.727 275.717 306.381 284.399 304.17C295.422 301.36 308.662 306.222 308.662 306.222Z" fill="#76A699"/>
<path d="M324.409 348.761C291.931 315.236 260.408 325.821 257.948 336.405C256.539 342.468 264.668 348.532 287.619 346.302C309.121 344.214 324.409 348.761 324.409 348.761Z" fill="#76A699"/>
<path d="M319.952 336.119C323.224 308.707 352.399 286.203 361.142 303.504C369.888 320.806 335.494 322.655 329.208 328.429C322.922 334.205 319.952 336.119 319.952 336.119Z" fill="#76A699"/>
<path d="M308.662 306.222C301.952 295.478 307.777 256.19 329.107 255.072C350.435 253.955 333.774 279.256 324.241 287.667C314.706 296.079 308.662 306.222 308.662 306.222Z" fill="#76A699"/>
<path d="M334.822 381.062C317.687 364.615 301.152 370.2 298.091 375.785C295.869 379.838 300.739 383.889 317.61 379.53C327.243 377.043 334.822 381.062 334.822 381.062Z" fill="#76A699"/>
<path d="M332.532 372.008C331.652 351.813 349.78 336.375 358.91 348.212C368.038 360.046 337.913 362.009 334.856 367.172C331.798 372.334 332.532 372.008 332.532 372.008Z" fill="#76A699"/>
<path d="M349.201 385.442L347.636 385.344C350.073 344.161 373.857 257.196 446.438 222.826L447.095 224.286C375.188 258.339 351.617 344.592 349.201 385.442Z" fill="#9FC7BD"/>
<path d="M332.91 392.222C289.004 353.419 223.906 353.048 222.751 353.048L222.734 351.439C223.284 351.439 289.372 351.624 333.934 391.004L332.91 392.222Z" fill="#58857A"/>
<path d="M253.572 355.373C235.105 342.656 223.331 339.391 214.809 349.116C206.285 358.843 222.883 362.9 234.725 360.197C246.567 357.493 253.572 355.373 253.572 355.373Z" fill="#58857A"/>
<path d="M285.837 363.876C253.715 361.009 232.898 373.892 235.31 389.813C237.722 405.734 254.693 379.853 264.166 373.077C273.639 366.302 285.837 363.876 285.837 363.876Z" fill="#58857A"/>
<path d="M312.777 376.33C288.026 373.366 262.953 390.424 261.212 401.794C259.472 413.163 280.634 417.002 293 399.88C305.367 382.762 312.777 376.33 312.777 376.33Z" fill="#58857A"/>
<path d="M283.043 363.14C262.81 353.587 268.42 332.45 278.706 325.118C289.006 317.776 295.641 324.134 290.333 335.915C286.953 343.422 278.904 346.86 280.738 356.069C281.728 361.046 283.043 363.14 283.043 363.14Z" fill="#58857A"/>
<path d="M312.511 376.462C301.508 367.619 299.951 333.629 319.634 327.641C337.623 322.171 340.697 338.349 323.853 351.518C312.773 360.18 312.511 376.462 312.511 376.462Z" fill="#58857A"/>
<path d="M431.472 232.436C437.677 223.713 460.843 206.264 460.566 218.024C460.289 229.782 431.472 232.436 431.472 232.436Z" fill="#9FC7BD"/>
<path d="M407.676 250.465C417.073 242.412 429.411 213.063 411.868 214.885C394.323 216.708 407.676 250.465 407.676 250.465Z" fill="#9FC7BD"/>
<path d="M407.676 250.465C429.686 246.136 453.738 242.168 447.977 255.914C442.217 269.662 407.676 250.465 407.676 250.465Z" fill="#9FC7BD"/>
<path d="M387.77 273.925C395.931 247.25 383.599 228.335 370.306 235.581C357.01 242.83 387.77 273.925 387.77 273.925Z" fill="#9FC7BD"/>
<path d="M381.995 282.98C395.782 273.278 426.304 263.973 428.75 280.119C431.193 296.266 381.995 282.98 381.995 282.98Z" fill="#9FC7BD"/>
<path d="M371.968 301.087C365.229 273.195 355.9 256.75 344.997 264.502C334.093 272.253 371.968 301.087 371.968 301.087Z" fill="#9FC7BD"/>
<path d="M370.326 304.947C389.556 297.301 421.746 291.958 420.38 307.334C419.012 322.712 370.326 304.947 370.326 304.947Z" fill="#9FC7BD"/>
<path d="M359.038 331.444C358.821 305.581 337.417 283.757 328.425 297.596C319.433 311.436 359.038 331.444 359.038 331.444Z" fill="#9FC7BD"/>
<path d="M359.073 334.113C382.121 328.8 419.791 319.905 413.863 338.425C407.934 356.948 359.073 334.113 359.073 334.113Z" fill="#9FC7BD"/>
<path d="M354.168 349.718C348.004 334.404 318.58 318.379 311.277 334.154C303.974 349.931 354.168 349.718 354.168 349.718Z" fill="#9FC7BD"/>
<path d="M351.553 363.861C355.371 358.435 392.049 344.084 393.849 358.355C395.648 372.623 351.553 363.861 351.553 363.861Z" fill="#9FC7BD"/>
<path d="M543.145 251.88C292.549 251.88 295.575 256.139 295.575 241.461C295.575 56.3756 291.749 55.0324 305.724 55.0324C556.322 55.0324 553.296 50.7757 553.296 65.4514V241.461C553.296 247.216 548.751 251.88 543.145 251.88Z" fill="white"/>
<path d="M491.719 55.6626C477.689 55.6626 460.516 55.7475 439.519 55.8515C405.088 56.0233 362.242 56.2355 305.724 56.2355C303.019 56.2355 301.297 56.2992 300.102 57.5321C295.958 61.8121 296.067 81.2961 296.431 145.86C296.572 170.75 296.747 201.727 296.747 241.461L296.745 241.983C296.741 244.595 296.784 246.009 297.837 247.087C302.239 251.594 324.921 251.481 409.342 251.061C443.773 250.891 486.623 250.677 543.145 250.677C548.096 250.677 552.122 246.543 552.122 241.461L552.124 64.9293C552.13 62.3171 552.087 60.9039 551.033 59.828C547.728 56.4414 534.093 55.6626 491.719 55.6626ZM356.963 253.656C311.833 253.656 300.069 252.769 296.183 248.788C294.391 246.955 294.397 244.648 294.405 241.979V241.461C294.405 201.736 294.232 170.761 294.089 145.874C293.702 77.154 293.609 60.8254 298.442 55.8366C300.385 53.8313 302.979 53.8313 305.724 53.8313C362.236 53.8313 405.08 53.6191 439.507 53.4472C528.979 53.0037 547.599 52.9104 552.689 58.1241C554.479 59.9596 554.474 62.2641 554.466 64.9357V65.4513V241.461C554.466 247.87 549.387 253.081 543.145 253.081C486.629 253.081 443.781 253.296 409.352 253.465C388.171 253.571 370.961 253.656 356.963 253.656Z" fill="#EEE4D9"/>
<path d="M553.296 64.8169H295.575C295.575 59.4164 299.84 55.0324 305.104 55.0324C558.981 55.0324 553.296 51.3593 553.296 64.8169Z" fill="#444244"/>
<path d="M296.83 63.6137H552.13C552.145 61.6488 552.077 60.5475 551.252 59.6987C547.176 55.4865 523.57 55.5841 435.722 55.9321C401.901 56.068 359.811 56.2356 305.104 56.2356C300.894 56.2356 297.4 59.4504 296.83 63.6137ZM554.466 66.0179H294.405V64.8169C294.405 58.7586 299.205 53.8314 305.104 53.8314C359.807 53.8314 401.894 53.6616 435.712 53.5279C530.978 53.1481 548.143 53.078 552.914 58.0032C554.512 59.6541 554.493 61.7463 554.47 63.9617L554.466 66.0179Z" fill="#444244"/>
<path d="M542.182 62.5612C545.051 62.5612 546.357 62.8498 546.357 61.5723C546.357 58.627 546.638 57.2881 545.394 57.2881C542.525 57.2881 541.22 56.9995 541.22 58.2748C541.22 61.2222 540.939 62.5612 542.182 62.5612Z" fill="#BEC0C2"/>
<path d="M542.289 62.0647L541.876 61.8886C541.648 61.653 541.648 61.2732 541.876 61.0376L544.871 57.9629C545.102 57.7274 545.47 57.7274 545.702 57.9629C545.929 58.1963 545.929 58.5761 545.702 58.8117L542.705 61.8886L542.289 62.0647Z" fill="white"/>
<path d="M545.289 62.0647L544.871 61.8886L541.876 58.8117C541.648 58.5761 541.648 58.1963 541.876 57.9629C542.105 57.7274 542.475 57.7274 542.705 57.9629L545.702 61.0376C545.929 61.2732 545.929 61.653 545.702 61.8886L545.289 62.0647Z" fill="white"/>
<path d="M334.405 81.1689H309.003C308.678 81.1689 308.416 80.9015 308.416 80.5705C308.416 80.2373 308.678 79.9678 309.003 79.9678H334.405C334.729 79.9678 334.99 80.2373 334.99 80.5705C334.99 80.9015 334.729 81.1689 334.405 81.1689Z" fill="#EEE4D9"/>
<path d="M334.405 226.947H309.003C308.678 226.947 308.416 226.677 308.416 226.344C308.416 226.013 308.678 225.744 309.003 225.744H334.405C334.729 225.744 334.99 226.013 334.99 226.344C334.99 226.677 334.729 226.947 334.405 226.947Z" fill="#EEE4D9"/>
<path d="M309.003 226.947C308.678 226.947 308.416 226.677 308.416 226.344V80.5704C308.416 80.2372 308.678 79.9677 309.003 79.9677C309.325 79.9677 309.588 80.2372 309.588 80.5704V226.344C309.588 226.677 309.325 226.947 309.003 226.947Z" fill="#EEE4D9"/>
<path d="M344.779 94.5181H324.03C323.706 94.5181 323.443 94.2508 323.443 93.9155C323.443 93.5845 323.706 93.315 324.03 93.315H344.779C345.104 93.315 345.366 93.5845 345.366 93.9155C345.366 94.2508 345.104 94.5181 344.779 94.5181Z" fill="#EEE4D9"/>
<path d="M344.779 213.598H324.03C323.706 213.598 323.443 213.33 323.443 212.997C323.443 212.666 323.706 212.397 324.03 212.397H344.779C345.104 212.397 345.366 212.666 345.366 212.997C345.366 213.33 345.104 213.598 344.779 213.598Z" fill="#EEE4D9"/>
<path d="M324.03 213.597C323.706 213.597 323.443 213.33 323.443 212.997V93.9156C323.443 93.5845 323.706 93.315 324.03 93.315C324.353 93.315 324.615 93.5845 324.615 93.9156V212.997C324.615 213.33 324.353 213.597 324.03 213.597Z" fill="#EEE4D9"/>
<path d="M357.533 112.239H342.956C342.634 112.239 342.371 111.972 342.371 111.638C342.371 111.307 342.634 111.038 342.956 111.038H357.533C357.856 111.038 358.118 111.307 358.118 111.638C358.118 111.972 357.856 112.239 357.533 112.239Z" fill="#EEE4D9"/>
<path d="M357.533 195.875H342.956C342.634 195.875 342.371 195.607 342.371 195.274C342.371 194.943 342.634 194.674 342.956 194.674H357.533C357.856 194.674 358.118 194.943 358.118 195.274C358.118 195.607 357.856 195.875 357.533 195.875Z" fill="#EEE4D9"/>
<path d="M342.956 195.875C342.634 195.875 342.371 195.607 342.371 195.274V111.638C342.371 111.307 342.634 111.038 342.956 111.038C343.281 111.038 343.541 111.307 343.541 111.638V195.274C343.541 195.607 343.281 195.875 342.956 195.875Z" fill="#EEE4D9"/>
<path d="M359.584 195.875C359.259 195.875 358.999 195.607 358.999 195.274V174.566C358.999 174.235 359.259 173.965 359.584 173.965C359.906 173.965 360.169 174.235 360.169 174.566V195.274C360.169 195.607 359.906 195.875 359.584 195.875Z" fill="#EEE4D9"/>
<path d="M364.334 134.293H342.956C342.634 134.293 342.371 134.023 342.371 133.692C342.371 133.359 342.634 133.092 342.956 133.092H364.334C364.658 133.092 364.919 133.359 364.919 133.692C364.919 134.023 364.658 134.293 364.334 134.293Z" fill="#EEE4D9"/>
<path d="M363.565 85.3639C313.172 85.3639 314.609 85.9772 314.609 83.9252C314.609 77.4489 314.197 75.7746 316.012 75.7746C366.405 75.7746 364.966 75.1593 364.966 77.2134C364.966 83.6897 365.378 85.3639 363.565 85.3639Z" fill="#9EBFD8"/>
<path d="M383.359 99.1654C332.966 99.1654 334.405 99.7808 334.405 97.7246C334.405 91.2504 333.991 89.5761 335.806 89.5761C386.199 89.5761 384.761 88.9608 384.761 91.0148C384.761 97.4912 385.174 99.1654 383.359 99.1654Z" fill="#C280E7"/>
<path d="M363.565 116.432C350.011 116.432 348.914 116.914 348.914 114.993C348.914 108.519 348.5 106.845 350.315 106.845C363.867 106.845 364.966 106.365 364.966 108.284C364.966 114.758 365.378 116.432 363.565 116.432Z" fill="#FFB4B4"/>
<path d="M366.207 200.07C352.655 200.07 351.555 200.549 351.555 198.629C351.555 192.155 351.144 190.481 352.959 190.481C366.511 190.481 367.61 190.001 367.61 191.919C367.61 198.393 368.022 200.07 366.207 200.07Z" fill="#FFB4B4"/>
<path d="M366.207 179.542C352.655 179.542 351.555 180.021 351.555 178.103C351.555 171.627 351.144 169.953 352.959 169.953C366.511 169.953 367.61 169.473 367.61 171.391C367.61 177.868 368.022 179.542 366.207 179.542Z" fill="#FFB4B4"/>
<path d="M372.689 217.546C333.617 217.546 334.405 218.16 334.405 216.108C334.405 209.634 333.991 207.959 335.806 207.959H372.689C373.464 207.959 374.09 208.604 374.09 209.398V216.108C374.09 216.903 373.464 217.546 372.689 217.546Z" fill="#C280E7"/>
<path d="M418.4 217.546H381.519C380.744 217.546 380.116 216.903 380.116 216.108V209.398C380.116 208.604 380.744 207.959 381.519 207.959H418.4C419.175 207.959 419.804 208.604 419.804 209.398V216.108C419.804 216.903 419.175 217.546 418.4 217.546Z" fill="#C280E7"/>
<path d="M468.677 159.351H431.794C431.019 159.351 430.393 158.706 430.393 157.912C430.393 151.436 429.979 149.762 431.794 149.762H468.677C469.45 149.762 470.078 150.407 470.078 151.201V157.912C470.078 158.706 469.45 159.351 468.677 159.351Z" fill="#FFB4B4"/>
<path d="M341.555 231.14C318.29 231.14 317.779 231.683 317.779 229.699C317.779 223.225 317.366 221.551 319.181 221.551C342.446 221.551 342.956 221.005 342.956 222.989V229.699C342.956 230.495 342.33 231.14 341.555 231.14Z" fill="#9EBFD8"/>
<path d="M461.174 85.364C368.846 85.364 373.357 86.0282 373.357 83.9253C373.357 77.449 372.945 75.7747 374.76 75.7747C467.089 75.7747 462.577 75.1106 462.577 77.2135V83.9253C462.577 84.7189 461.949 85.364 461.174 85.364Z" fill="#C280E7"/>
<path d="M444.596 179.542C370.715 179.542 374.09 180.125 374.09 178.25C374.09 171.304 373.722 169.953 375.349 169.953H444.596C445.29 169.953 445.852 170.53 445.852 171.243V178.25C445.852 178.963 445.29 179.542 444.596 179.542Z" fill="#9EBFD8"/>
<path d="M436.731 138.486C344.401 138.486 348.914 139.15 348.914 137.047C348.914 130.571 348.5 128.896 350.315 128.896C442.642 128.896 438.132 128.232 438.132 130.335V137.047C438.132 137.841 437.504 138.486 436.731 138.486Z" fill="#9EBFD8"/>
<path d="M499.962 85.3639C478.601 85.3639 478.917 85.714 478.917 84.5002C478.917 76.6723 478.586 75.7747 479.756 75.7747C501.119 75.7747 500.801 75.4245 500.801 76.6362C500.801 84.4663 501.134 85.3639 499.962 85.3639Z" fill="#C280E7"/>
<path d="M526.201 85.3639C504.838 85.3639 505.156 85.714 505.156 84.5002C505.156 76.6723 504.824 75.7747 505.998 75.7747C527.359 75.7747 527.04 75.4245 527.04 76.6362C527.04 84.4663 527.373 85.3639 526.201 85.3639Z" fill="#FFB4B4"/>
<path d="M637.08 416.731C418.365 416.731 422.641 420.164 422.641 408.521C422.641 277.382 419.621 275.139 430.637 275.139C649.353 275.139 645.078 271.706 645.078 283.349V408.521C645.078 413.055 641.496 416.731 637.08 416.731Z" fill="white"/>
<path d="M593.443 275.871C581.4 275.871 566.608 275.939 548.468 276.024C518.264 276.166 480.68 276.342 430.639 276.342C428.33 276.342 427.162 276.487 426.331 277.346C423.189 280.593 423.282 295.746 423.563 340.721C423.675 358.408 423.811 380.417 423.811 408.521L423.807 409.187C423.795 411.037 423.82 412.039 424.529 412.765C427.935 416.274 447.279 416.181 519.25 415.846C549.449 415.703 587.037 415.527 637.082 415.527C640.844 415.527 643.906 412.385 643.906 408.521L643.908 282.685C643.922 280.835 643.898 279.833 643.189 279.105C640.64 276.48 629.172 275.871 593.443 275.871ZM473.727 418.407C434.934 418.407 425.996 417.683 422.871 414.464C421.438 412.989 421.451 411.133 421.465 409.168L421.469 408.521C421.469 380.426 421.331 358.418 421.221 340.738C420.913 291.345 420.839 279.608 424.671 275.651C426.207 274.065 428.196 273.938 430.639 273.938C480.674 273.938 518.255 273.762 548.455 273.62C626.66 273.253 640.747 273.187 644.848 277.408C646.279 278.882 646.264 280.737 646.252 282.7L646.248 283.349V408.521C646.248 413.711 642.136 417.932 637.082 417.932C587.043 417.932 549.46 418.108 519.262 418.248C500.723 418.335 485.784 418.407 473.727 418.407Z" fill="#EEE4D9"/>
<path d="M645.078 282.176H422.641C422.641 278.29 425.711 275.139 429.496 275.139C652.736 275.139 645.078 272.478 645.078 282.176Z" fill="#444244"/>
<path d="M423.933 280.975H643.928C643.957 279.835 643.928 279.243 643.511 278.804C640.656 275.799 620.316 275.865 544.654 276.119C514.931 276.219 477.944 276.342 429.496 276.342C426.761 276.342 424.473 278.333 423.933 280.975ZM646.248 283.379H421.469V282.176C421.469 277.635 425.068 273.938 429.496 273.938C477.941 273.938 514.925 273.815 544.645 273.715C628.719 273.435 641.642 273.393 645.187 277.125C646.345 278.343 646.305 279.835 646.264 281.278C646.256 281.562 646.248 281.866 646.248 282.176V283.379Z" fill="#444244"/>
<path d="M635.412 280.556C637.339 280.556 639.088 280.964 639.088 279.778C639.088 278.345 639.416 276.762 638.331 276.762C636.407 276.762 634.656 276.353 634.656 277.539C634.656 278.973 634.329 280.556 635.412 280.556Z" fill="#BEC0C2"/>
<path d="M635.58 280.366L635.129 280.149C634.922 279.895 634.955 279.517 635.205 279.302L637.791 277.089C638.037 276.879 638.405 276.911 638.614 277.168C638.823 277.422 638.788 277.802 638.54 278.014L635.954 280.226L635.58 280.366Z" fill="white"/>
<path d="M638.166 280.366L637.791 280.226L635.205 278.014C634.955 277.802 634.922 277.422 635.129 277.168C635.338 276.911 635.708 276.879 635.954 277.089L638.54 279.302C638.788 279.517 638.823 279.895 638.614 280.149L638.166 280.366Z" fill="white"/>
<path d="M514.243 406.984C512.484 406.984 511.645 406.8 511.645 405.616C511.645 401.713 511.262 399.891 512.941 399.891C514.13 399.891 515.118 399.852 515.918 399.852C517.679 399.852 518.518 400.037 518.518 401.223C518.518 405.125 518.9 406.946 517.22 406.946C516.033 406.946 515.041 406.984 514.243 406.984Z" fill="#746968"/>
<path d="M499.127 406.984C497.368 406.984 496.529 406.8 496.529 405.616C496.529 401.713 496.146 399.891 497.827 399.891C499.013 399.891 500.003 399.852 500.803 399.852C502.562 399.852 503.402 400.037 503.402 401.223C503.402 405.125 503.782 406.946 502.106 406.946C500.917 406.946 499.927 406.984 499.127 406.984Z" fill="#746968"/>
<path d="M483.029 406.984C481.27 406.984 480.43 406.8 480.43 405.616C480.43 401.713 480.048 399.891 481.728 399.891C482.915 399.891 483.905 399.852 484.705 399.852C486.464 399.852 487.305 400.037 487.305 401.223C487.305 405.125 487.686 406.946 486.007 406.946C484.819 406.946 483.829 406.984 483.029 406.984Z" fill="#746968"/>
<path d="M469.839 406.984C468.08 406.984 467.24 406.8 467.24 405.616C467.24 401.713 466.858 399.891 468.538 399.891C469.725 399.891 470.715 399.852 471.515 399.852C473.274 399.852 474.113 400.037 474.113 401.223C474.113 405.125 474.496 406.946 472.817 406.946C471.629 406.946 470.639 406.984 469.839 406.984Z" fill="#746968"/>
<path d="M454.408 406.984C452.649 406.984 451.812 406.8 451.812 405.616C451.812 401.713 451.429 399.891 453.108 399.891C454.294 399.891 455.285 399.852 456.084 399.852C457.846 399.852 458.685 400.037 458.685 401.223C458.685 405.125 459.067 406.946 457.387 406.946C456.198 406.946 455.208 406.984 454.408 406.984Z" fill="#746968"/>
<path d="M480.095 299.192C452.746 299.192 451.812 299.96 451.812 297.08C451.812 294.944 451.388 292.136 453.869 292.136C481.216 292.136 482.152 291.366 482.152 294.25C482.152 296.387 482.576 299.192 480.095 299.192Z" fill="#9EBFD8"/>
<path d="M509.94 299.334C488.897 299.334 490.102 298.971 490.102 297.08C490.102 294.944 489.678 292.136 492.159 292.136C528.549 292.136 550.466 291.994 563.658 291.994C584.755 291.994 583.548 292.357 583.548 294.25V297.08C583.548 298.248 582.626 299.192 581.489 299.192C545.055 299.192 523.127 299.334 509.94 299.334Z" fill="#746968"/>
<path d="M509.94 330.37C488.897 330.37 490.102 330.007 490.102 328.117C490.102 325.98 489.678 323.172 492.159 323.172H581.489C582.626 323.172 583.548 324.119 583.548 325.286V328.117C583.548 329.284 582.626 330.228 581.489 330.228C545.055 330.228 523.127 330.37 509.94 330.37Z" fill="#746968"/>
<path d="M581.489 361.264H492.159C489.193 361.264 489.195 354.208 492.159 354.208H581.489C582.626 354.208 583.548 355.153 583.548 356.32V359.153C583.548 360.32 582.626 361.264 581.489 361.264Z" fill="#746968"/>
<path d="M509.944 392.442C488.893 392.442 490.102 392.079 490.102 390.189C490.102 388.052 489.678 385.245 492.159 385.245C528.589 385.245 550.516 385.1 563.706 385.1C584.755 385.1 583.548 385.465 583.548 387.356C583.548 389.493 583.969 392.3 581.489 392.3C545.061 392.3 523.132 392.442 509.944 392.442Z" fill="#746968"/>
<path d="M480.095 314.71C452.746 314.71 451.812 315.48 451.812 312.596C451.812 310.462 451.388 307.654 453.869 307.654C481.216 307.654 482.152 306.886 482.152 309.766C482.152 311.903 482.576 314.71 480.095 314.71Z" fill="#9EBFD8"/>
<path d="M480.095 330.228C452.746 330.228 451.812 330.996 451.812 328.117C451.812 325.98 451.388 323.172 453.869 323.172C481.216 323.172 482.152 322.402 482.152 325.286C482.152 327.421 482.576 330.228 480.095 330.228Z" fill="#9EBFD8"/>
<path d="M480.095 345.746C452.746 345.746 451.812 346.516 451.812 343.633C451.812 341.496 451.388 338.69 453.869 338.69C481.216 338.69 482.152 337.922 482.152 340.802C482.152 342.939 482.576 345.746 480.095 345.746Z" fill="#9EBFD8"/>
<path d="M480.095 361.264C452.746 361.264 451.812 362.032 451.812 359.153C451.812 357.016 451.388 354.208 453.869 354.208C481.216 354.208 482.152 353.438 482.152 356.32V359.153C482.152 360.32 481.23 361.264 480.095 361.264Z" fill="#9EBFD8"/>
<path d="M480.095 376.782C452.746 376.782 451.812 377.552 451.812 374.669C451.812 372.532 451.388 369.726 453.869 369.726C481.216 369.726 482.152 368.958 482.152 371.838C482.152 373.975 482.576 376.782 480.095 376.782Z" fill="#9EBFD8"/>
<path d="M480.095 392.3C452.746 392.3 451.812 393.068 451.812 390.189C451.812 388.052 451.388 385.245 453.869 385.245C481.216 385.245 482.152 384.474 482.152 387.356C482.152 389.493 482.576 392.3 480.095 392.3Z" fill="#9EBFD8"/>
<path d="M613.851 314.71C586.501 314.71 585.567 315.48 585.567 312.596C585.567 310.462 585.143 307.654 587.624 307.654C614.971 307.654 615.907 306.886 615.907 309.766C615.907 311.903 616.331 314.71 613.851 314.71Z" fill="#9EBFD8"/>
<path d="M613.851 345.746C586.501 345.746 585.567 346.516 585.567 343.633C585.567 341.496 585.143 338.69 587.624 338.69C614.971 338.69 615.907 337.922 615.907 340.802C615.907 342.939 616.331 345.746 613.851 345.746Z" fill="#9EBFD8"/>
<path d="M613.851 376.782C586.501 376.782 585.567 377.552 585.567 374.669C585.567 372.532 585.143 369.726 587.624 369.726C614.971 369.726 615.907 368.958 615.907 371.838C615.907 373.975 616.331 376.782 613.851 376.782Z" fill="#9EBFD8"/>
<path d="M547.248 314.788H521.021C519.886 314.788 518.964 313.842 518.964 312.675V309.844C518.964 308.679 519.886 307.731 521.021 307.731H547.248C548.385 307.731 549.305 308.679 549.305 309.844V312.675C549.305 313.842 548.385 314.788 547.248 314.788Z" fill="#D6723A"/>
<path d="M547.248 345.825C519.899 345.825 518.964 346.593 518.964 343.711C518.964 341.576 518.541 338.767 521.021 338.767H547.248C548.385 338.767 549.305 339.715 549.305 340.88V343.711C549.305 344.878 548.385 345.825 547.248 345.825Z" fill="#FFB4B4"/>
<path d="M547.248 376.861C519.899 376.861 518.964 377.629 518.964 374.747C518.964 372.612 518.541 369.803 521.021 369.803C548.37 369.803 549.305 369.035 549.305 371.916C549.305 374.053 549.728 376.861 547.248 376.861Z" fill="#FFB4B4"/>
<path d="M700.626 322.631C463.315 322.631 468.971 326.024 468.971 313.761V178.542C468.971 173.645 472.838 169.675 477.607 169.675C714.918 169.675 709.264 166.279 709.264 178.542V313.761C709.264 318.661 705.397 322.631 700.626 322.631Z" fill="white"/>
<path d="M649.468 170.364C636.258 170.364 620.201 170.428 600.725 170.506C568.917 170.634 529.331 170.793 477.607 170.793C473.446 170.793 470.06 174.269 470.06 178.542L470.052 314.612C470.029 316.548 470.056 317.594 470.825 318.389C474.52 322.211 496.332 322.122 577.497 321.799C609.305 321.672 648.896 321.513 700.624 321.513C704.789 321.513 708.173 318.035 708.173 313.763L708.181 177.694C708.202 175.758 708.177 174.712 707.408 173.916C704.599 171.009 691.32 170.364 649.468 170.364ZM527.851 324.18C482.842 324.18 472.629 323.431 469.278 319.964C467.829 318.468 467.852 316.581 467.873 314.587L467.879 313.763V178.542C467.879 173.036 472.245 168.556 477.607 168.556C529.327 168.556 568.909 168.397 600.717 168.27C688.751 167.913 704.617 167.852 708.954 172.342C710.403 173.838 710.382 175.722 710.36 177.719L710.354 178.542V313.763C710.354 319.27 705.99 323.749 700.624 323.749C648.902 323.749 609.314 323.907 577.506 324.036C557.447 324.114 541.131 324.18 527.851 324.18Z" fill="#EEE4D9"/>
<path d="M709.264 177.275H468.97C468.97 173.076 472.284 169.674 476.375 169.674C717.185 169.674 709.264 166.797 709.264 177.275Z" fill="#444244"/>
<path d="M470.153 176.157H708.193C708.226 174.81 708.206 174.069 707.683 173.52C704.528 170.205 684.575 170.273 600.607 170.553C568.535 170.659 528.62 170.793 476.375 170.793C473.264 170.793 470.672 173.112 470.153 176.157ZM710.353 178.394H467.879V177.276C467.879 172.467 471.691 168.556 476.375 168.556C528.615 168.556 568.528 168.423 600.599 168.314C689.435 168.019 705.44 167.966 709.241 171.958C710.449 173.225 710.409 174.735 710.37 176.335C710.362 176.637 710.353 176.949 710.353 177.276V178.394Z" fill="#444244"/>
<path d="M509.7 189.863H488.641C488.374 189.863 488.157 189.64 488.157 189.366C488.157 189.091 488.374 188.868 488.641 188.868H509.7C509.966 188.868 510.183 189.091 510.183 189.366C510.183 189.64 509.966 189.863 509.7 189.863Z" fill="#EEE4D9"/>
<path d="M509.7 310.695H488.641C488.374 310.695 488.157 310.472 488.157 310.196C488.157 309.923 488.374 309.7 488.641 309.7H509.7C509.966 309.7 510.183 309.923 510.183 310.196C510.183 310.472 509.966 310.695 509.7 310.695Z" fill="#EEE4D9"/>
<path d="M488.641 310.695C488.374 310.695 488.157 310.472 488.157 310.196V189.367C488.157 189.091 488.374 188.868 488.641 188.868C488.909 188.868 489.128 189.091 489.128 189.367V310.196C489.128 310.472 488.909 310.695 488.641 310.695Z" fill="#EEE4D9"/>
<path d="M508.96 215.618H496.88C496.611 215.618 496.394 215.395 496.394 215.119C496.394 214.843 496.611 214.62 496.88 214.62H508.96C509.227 214.62 509.446 214.843 509.446 215.119C509.446 215.395 509.227 215.618 508.96 215.618Z" fill="#EEE4D9"/>
<path d="M508.96 284.94H496.88C496.611 284.94 496.394 284.718 496.394 284.444C496.394 284.168 496.611 283.943 496.88 283.943H508.96C509.227 283.943 509.446 284.168 509.446 284.444C509.446 284.718 509.227 284.94 508.96 284.94Z" fill="#EEE4D9"/>
<path d="M496.88 284.94C496.611 284.94 496.394 284.718 496.394 284.444V215.119C496.394 214.843 496.611 214.62 496.88 214.62C497.147 214.62 497.364 214.843 497.364 215.119V284.444C497.364 284.718 497.147 284.94 496.88 284.94Z" fill="#EEE4D9"/>
<path d="M514.599 233.896H496.88C496.611 233.896 496.394 233.674 496.394 233.398C496.394 233.122 496.611 232.899 496.88 232.899H514.599C514.865 232.899 515.082 233.122 515.082 233.398C515.082 233.674 514.865 233.896 514.599 233.896Z" fill="#EEE4D9"/>
<path d="M533.868 193.339H494.453C493.81 193.339 493.289 192.806 493.289 192.146V186.585C493.289 185.925 493.81 185.392 494.453 185.392C536.212 185.392 535.032 184.883 535.032 186.585V192.146C535.032 192.806 534.511 193.339 533.868 193.339Z" fill="#9EBFD8"/>
<path d="M513.96 219.093H502.978C502.335 219.093 501.816 218.559 501.816 217.901V212.337C501.816 211.679 502.335 211.144 502.978 211.144H513.96C514.603 211.144 515.122 211.679 515.122 212.337V217.901C515.122 218.559 514.603 219.093 513.96 219.093Z" fill="#FFB4B4"/>
<path d="M515.626 314.171H497.078C496.438 314.171 495.919 313.638 495.919 312.978V307.417C495.919 306.757 496.438 306.222 497.078 306.222H515.626C516.269 306.222 516.786 306.757 516.786 307.417V312.978C516.786 313.638 516.269 314.171 515.626 314.171Z" fill="#9EBFD8"/>
<path d="M620.899 233.896H571.827C571.561 233.896 571.344 233.674 571.344 233.398C571.344 233.122 571.561 232.899 571.827 232.899H620.899C621.166 232.899 621.383 233.122 621.383 233.398C621.383 233.674 621.166 233.896 620.899 233.896Z" fill="#EEE4D9"/>
<path d="M614.777 193.339C538.333 193.339 541.987 193.897 541.987 192.146C541.987 186.937 541.634 185.392 543.147 185.392C619.591 185.392 615.939 184.832 615.939 186.585C615.939 191.794 616.29 193.339 614.777 193.339Z" fill="#C280E7"/>
<path d="M561.682 288.418H504.284C503.707 288.418 503.242 287.937 503.242 287.347V281.539C503.242 280.947 503.707 280.47 504.284 280.47H561.682C562.259 280.47 562.724 280.947 562.724 281.539V287.347C562.724 287.937 562.259 288.418 561.682 288.418Z" fill="#9EBFD8"/>
<path d="M574.606 237.372H502.978C502.335 237.372 501.816 236.837 501.816 236.18V230.618C501.816 229.958 502.335 229.423 502.978 229.423H574.606C575.248 229.423 575.769 229.958 575.769 230.618V236.18C575.769 236.837 575.248 237.372 574.606 237.372Z" fill="#9EBFD8"/>
<path d="M616.604 287.175H594.855C594.586 287.175 594.371 286.95 594.371 286.678C594.371 286.403 594.586 286.18 594.855 286.18H616.604C616.869 286.18 617.088 286.403 617.088 286.678C617.088 286.95 616.869 287.175 616.604 287.175Z" fill="#EEE4D9"/>
<path d="M616.604 269.509H594.855C594.586 269.509 594.371 269.287 594.371 269.011C594.371 268.735 594.586 268.512 594.855 268.512H616.604C616.869 268.512 617.088 268.735 617.088 269.011C617.088 269.287 616.869 269.509 616.604 269.509Z" fill="#EEE4D9"/>
<path d="M616.604 251.842H594.855C594.586 251.842 594.371 251.621 594.371 251.345C594.371 251.069 594.586 250.847 594.855 250.847H616.604C616.869 250.847 617.088 251.069 617.088 251.345C617.088 251.621 616.869 251.842 616.604 251.842Z" fill="#EEE4D9"/>
<path d="M603.228 237.652C586.46 237.652 585.784 238.106 585.784 236.937C585.784 231.397 585.342 229.703 586.481 229.703C603.251 229.703 603.925 229.251 603.925 230.418C603.925 235.961 604.367 237.652 603.228 237.652Z" fill="#C280E7"/>
<path d="M556.519 260.646H518.346C517.776 260.646 517.311 260.169 517.311 259.581V253.762C517.311 253.175 517.776 252.697 518.346 252.697H556.519C557.093 252.697 557.556 253.175 557.556 253.762V259.581C557.556 260.169 557.093 260.646 556.519 260.646Z" fill="#C280E7"/>
<path d="M624.976 237.652C608.208 237.652 607.534 238.106 607.534 236.937C607.534 231.397 607.092 229.703 608.231 229.703C624.999 229.703 625.672 229.251 625.672 230.418C625.672 235.961 626.115 237.652 624.976 237.652Z" fill="#FFB4B4"/>
<path d="M603.228 255.318C586.46 255.318 585.784 255.772 585.784 254.605C585.784 249.062 585.342 247.371 586.481 247.371C603.251 247.371 603.925 246.917 603.925 248.084C603.925 253.627 604.367 255.318 603.228 255.318Z" fill="#C280E7"/>
<path d="M624.976 255.318C608.208 255.318 607.534 255.772 607.534 254.605C607.534 249.062 607.092 247.371 608.231 247.371C624.998 247.371 625.672 246.917 625.672 248.084V254.605C625.672 255 625.36 255.318 624.976 255.318Z" fill="#FFB4B4"/>
<path d="M603.228 272.985C586.46 272.985 585.784 273.437 585.784 272.27C585.784 266.728 585.342 265.036 586.481 265.036C603.251 265.036 603.925 264.582 603.925 265.751C603.925 271.294 604.367 272.985 603.228 272.985Z" fill="#C280E7"/>
<path d="M624.976 272.985C608.208 272.985 607.534 273.437 607.534 272.27C607.534 266.728 607.092 265.036 608.231 265.036C624.999 265.036 625.672 264.582 625.672 265.751C625.672 271.294 626.115 272.985 624.976 272.985Z" fill="#FFB4B4"/>
<path d="M603.228 290.653C586.46 290.653 585.784 291.103 585.784 289.938C585.784 284.393 585.342 282.702 586.481 282.702C603.251 282.702 603.925 282.25 603.925 283.417C603.925 288.959 604.367 290.653 603.228 290.653Z" fill="#C280E7"/>
<path d="M624.976 290.653C608.208 290.653 607.534 291.103 607.534 289.938C607.534 284.393 607.092 282.702 608.231 282.702C624.999 282.702 625.672 282.25 625.672 283.417C625.672 288.959 626.115 290.653 624.976 290.653Z" fill="#FFB4B4"/>
<path d="M605.729 287.175C605.461 287.175 605.241 286.95 605.241 286.679V233.398C605.241 233.122 605.461 232.899 605.729 232.899C605.996 232.899 606.213 233.122 606.213 233.398V286.679C606.213 286.95 605.996 287.175 605.729 287.175Z" fill="#EEE4D9"/>
<path d="M635.625 193.339C624.424 193.339 623.481 193.74 623.481 192.146C623.481 186.937 623.13 185.392 624.643 185.392C635.844 185.392 636.787 184.991 636.787 186.585C636.787 191.794 637.138 193.339 635.625 193.339Z" fill="#FFB4B4"/>
<path d="M658.442 193.339C647.24 193.339 646.297 193.74 646.297 192.146C646.297 186.937 645.946 185.392 647.459 185.392C658.661 185.392 659.603 184.991 659.603 186.585C659.603 191.794 659.955 193.339 658.442 193.339Z" fill="#FFB4B4"/>
<path d="M681.258 193.339C670.056 193.339 669.114 193.74 669.114 192.146C669.114 186.937 668.762 185.392 670.275 185.392C681.477 185.392 682.419 184.991 682.419 186.585C682.419 191.794 682.773 193.339 681.258 193.339Z" fill="#FFB4B4"/>
<path d="M175.928 252.061C175.928 275.489 157.426 294.481 134.604 294.481C111.782 294.481 93.2817 275.489 93.2817 252.061C93.2817 228.632 111.782 209.64 134.604 209.64C157.426 209.64 175.928 228.632 175.928 252.061Z" fill="white"/>
<path d="M134.605 211.756C112.955 211.756 95.344 229.837 95.344 252.061C95.344 274.284 112.955 292.365 134.605 292.365C156.254 292.365 173.866 274.284 173.866 252.061C173.866 229.837 156.254 211.756 134.605 211.756ZM134.605 296.599C110.682 296.599 91.2196 276.618 91.2196 252.061C91.2196 227.503 110.682 207.522 134.605 207.522C158.527 207.522 177.99 227.503 177.99 252.061C177.99 276.618 158.527 296.599 134.605 296.599Z" fill="#D1868D"/>
<path d="M134.455 219.477C131.976 219.477 131.019 215.492 133.795 214.578C134.085 214.482 134.361 214.438 134.621 214.438C137.099 214.438 138.058 218.423 135.283 219.337C134.992 219.433 134.715 219.477 134.455 219.477Z" fill="#D4D6D7"/>
<path d="M151.609 224.057C151.419 224.057 151.219 224.033 151.01 223.989C148.075 223.337 148.773 219.034 151.441 219.034C151.631 219.034 151.83 219.055 152.04 219.102C154.975 219.755 154.276 224.057 151.609 224.057Z" fill="#D4D6D7"/>
<path d="M164.873 238.777C164.298 238.777 163.701 238.543 163.173 237.987C161.458 236.175 163.095 233.71 164.964 233.71C165.539 233.71 166.136 233.943 166.664 234.501C168.379 236.311 166.742 238.777 164.873 238.777Z" fill="#D4D6D7"/>
<path d="M168.625 254.452C167.4 254.452 166.173 253.614 166.189 251.948C166.205 250.31 167.412 249.495 168.621 249.495C169.847 249.495 171.073 250.333 171.057 251.997C171.042 253.637 169.834 254.452 168.625 254.452Z" fill="#D4D6D7"/>
<path d="M117.465 224.057C114.798 224.057 114.098 219.755 117.034 219.102C117.243 219.055 117.443 219.034 117.633 219.034C120.3 219.034 120.999 223.337 118.065 223.989C117.855 224.033 117.655 224.057 117.465 224.057Z" fill="#D4D6D7"/>
<path d="M104.2 238.777C102.331 238.777 100.694 236.311 102.41 234.501C102.938 233.943 103.535 233.71 104.11 233.71C105.979 233.71 107.616 236.175 105.9 237.987C105.372 238.543 104.775 238.777 104.2 238.777Z" fill="#D4D6D7"/>
<path d="M100.449 254.452C99.24 254.452 98.032 253.637 98.0167 251.997C98.0004 250.333 99.2278 249.495 100.454 249.495C101.661 249.495 102.869 250.31 102.885 251.948C102.901 253.614 101.674 254.452 100.449 254.452Z" fill="#D4D6D7"/>
<path d="M134.63 289.499C134.369 289.499 134.093 289.454 133.803 289.359C131.027 288.446 131.985 284.459 134.464 284.459C134.724 284.459 135.001 284.503 135.291 284.599C138.066 285.514 137.108 289.499 134.63 289.499Z" fill="#D4D6D7"/>
<path d="M151.449 284.902C148.781 284.902 148.083 280.601 151.018 279.95C151.227 279.903 151.427 279.88 151.616 279.88C154.284 279.88 154.983 284.183 152.048 284.834C151.839 284.881 151.639 284.902 151.449 284.902Z" fill="#D4D6D7"/>
<path d="M164.972 270.227C163.103 270.227 161.467 267.761 163.182 265.949C163.71 265.393 164.307 265.159 164.882 265.159C166.75 265.159 168.387 267.625 166.672 269.435C166.144 269.993 165.547 270.227 164.972 270.227Z" fill="#D4D6D7"/>
<path d="M117.641 284.902C117.451 284.902 117.252 284.881 117.043 284.834C114.106 284.183 114.807 279.88 117.474 279.88C117.663 279.88 117.863 279.903 118.072 279.95C121.008 280.601 120.308 284.902 117.641 284.902Z" fill="#D4D6D7"/>
<path d="M104.118 270.227C103.544 270.227 102.946 269.993 102.418 269.435C100.703 267.625 102.34 265.159 104.208 265.159C104.783 265.159 105.38 265.393 105.908 265.949C107.624 267.761 105.988 270.227 104.118 270.227Z" fill="#D4D6D7"/>
<path d="M134.516 254.155C134.328 254.155 134.142 254.102 133.978 253.998C133.672 253.807 133.485 253.465 133.485 253.096V225.447C133.485 224.861 133.946 224.388 134.516 224.388C135.087 224.388 135.547 224.861 135.547 225.447V251.371L158.527 239.365C159.036 239.097 159.655 239.307 159.913 239.827C160.171 240.347 159.97 240.986 159.462 241.251L134.984 254.04L134.516 254.155Z" fill="#72787A"/>
<path d="M352.434 480.016H291.902L308.416 443.272H335.92L352.434 480.016Z" fill="#72787A"/>
<path d="M416.056 447.913C216.037 447.913 224.158 449.708 224.158 443.881C224.158 305.849 222.476 310.653 228.084 310.653C428.103 310.653 419.981 308.86 419.981 314.684C419.981 452.72 421.664 447.913 416.056 447.913Z" fill="#9C9FA0"/>
<path d="M411.686 421.456C221.603 421.456 228.528 423.296 228.528 417.427C228.528 313.182 226.862 314.661 232.453 314.661C422.538 314.661 415.614 312.821 415.614 318.691C415.614 422.935 417.28 421.456 411.686 421.456Z" fill="#2F3D69"/>
<path d="M321.798 440.55C314.611 440.55 314.602 429.382 321.798 429.382C328.985 429.382 328.993 440.55 321.798 440.55Z" fill="#72787A"/>
<path d="M388.694 413.751C247.353 413.751 250.286 415.918 250.286 408.453C250.286 323.803 248.337 322.364 255.447 322.364C396.789 322.364 393.855 320.2 393.855 327.663C393.855 412.315 395.805 413.751 388.694 413.751Z" fill="white"/>
<path d="M359.836 322.744C352.041 322.744 342.502 322.786 330.85 322.839C311.481 322.926 287.379 323.032 255.447 323.032C254.12 323.032 253.202 323.081 252.593 323.713C250.532 325.84 250.59 334.841 250.778 364.668C250.848 376.088 250.937 390.301 250.937 408.453L250.935 408.907C250.925 410.11 250.941 410.761 251.421 411.254C253.645 413.55 266.281 413.492 313.292 413.28C332.658 413.193 356.762 413.085 388.694 413.085C390.021 413.085 390.937 413.036 391.549 412.404C393.608 410.28 393.55 401.276 393.366 371.45C393.293 360.029 393.204 345.816 393.204 327.665L393.207 327.21C393.217 326.007 393.198 325.356 392.721 324.864C391.046 323.136 383.483 322.744 359.836 322.744ZM283.768 414.713C258.333 414.713 252.491 414.254 250.499 412.2C249.612 411.286 249.622 410.125 249.633 408.894L249.635 408.453C249.635 390.303 249.546 376.095 249.476 364.676C249.275 332.853 249.228 325.292 251.669 322.769C252.63 321.776 253.895 321.695 255.447 321.695C287.377 321.695 311.477 321.589 330.843 321.502C381.846 321.271 391.034 321.231 393.643 323.917C394.527 324.832 394.519 325.992 394.509 327.223L394.505 327.665C394.505 345.814 394.596 360.023 394.666 371.441C394.866 403.264 394.914 410.825 392.473 413.348C391.509 414.343 390.246 414.422 388.694 414.422C356.764 414.422 332.662 414.528 313.298 414.615C301.291 414.67 291.602 414.713 283.768 414.713Z" fill="#EEE4D9"/>
<path d="M393.856 326.907H250.286C250.286 324.401 252.264 322.364 254.709 322.364C398.362 322.364 393.856 320.424 393.856 326.907Z" fill="#444244"/>
<path d="M250.993 326.239H393.215C393.231 325.39 393.217 324.923 392.886 324.577C391.007 322.608 378.659 322.663 332.704 322.848C313.86 322.928 288.053 323.032 254.709 323.032C252.851 323.032 251.303 324.42 250.993 326.239ZM394.505 327.573H249.635V326.907C249.635 324.034 251.911 321.695 254.709 321.695C288.051 321.695 313.856 321.591 332.698 321.513C382.565 321.311 391.549 321.271 393.816 323.639C394.556 324.416 394.536 325.354 394.513 326.347C394.511 326.527 394.505 326.714 394.505 326.907V327.573Z" fill="#444244"/>
<path d="M387.617 325.859H389.5C390.178 325.859 390.391 323.41 389.5 323.41H387.617C386.77 323.41 387.127 326.001 387.127 325.358C387.127 325.634 387.346 325.859 387.617 325.859Z" fill="#BEC0C2"/>
<path d="M387.725 325.683L387.475 325.564L387.516 325.093L389.186 323.665L389.645 323.709L389.602 324.178L387.933 325.606L387.725 325.683Z" fill="white"/>
<path d="M389.395 325.683L389.186 325.606L387.516 324.178L387.475 323.709L387.933 323.665L389.602 325.093L389.645 325.564L389.395 325.683Z" fill="white"/>
<path d="M306.427 347.231C268.559 347.231 269.681 347.649 269.681 346.304C269.681 343.125 269.414 341.901 270.584 341.901C308.453 341.901 307.331 341.483 307.331 342.828C307.331 346.005 307.597 347.231 306.427 347.231Z" fill="#9EBFD8"/>
<path d="M334.727 394.187C266.789 394.187 269.681 394.755 269.681 392.954C269.681 390.503 269.371 388.856 270.88 388.856C338.818 388.856 335.926 388.285 335.926 390.087C335.926 392.538 336.234 394.187 334.727 394.187Z" fill="#9EBFD8"/>
<path d="M264.898 347.293C261.994 347.293 260.638 347.592 260.638 346.274C260.638 343.293 260.346 341.901 261.628 341.901C264.532 341.901 265.888 341.602 265.888 342.917C265.888 345.901 266.18 347.293 264.898 347.293Z" fill="#FFB4B4"/>
<path d="M264.898 359.146C261.994 359.146 260.638 359.445 260.638 358.13C260.638 355.148 260.346 353.756 261.628 353.756C264.532 353.756 265.888 353.457 265.888 354.773C265.888 357.754 266.18 359.146 264.898 359.146Z" fill="#FFB4B4"/>
<path d="M264.898 371.772C261.994 371.772 260.638 372.071 260.638 370.756C260.638 367.772 260.346 366.38 261.628 366.38C264.532 366.38 265.888 366.081 265.888 367.399C265.888 370.38 266.18 371.772 264.898 371.772Z" fill="#FFB4B4"/>
<path d="M264.898 382.115C261.994 382.115 260.638 382.416 260.638 381.098C260.638 378.117 260.346 376.725 261.628 376.725C264.532 376.725 265.888 376.426 265.888 377.743C265.888 380.723 266.18 382.115 264.898 382.115Z" fill="#FFB4B4"/>
<path d="M264.898 394.216C261.994 394.216 260.638 394.516 260.638 393.2C260.638 390.216 260.346 388.824 261.628 388.824C264.532 388.824 265.888 388.527 265.888 389.843C265.888 392.824 266.18 394.216 264.898 394.216Z" fill="#FFB4B4"/>
<path d="M311.324 347.433H384.382V341.761H311.324V347.433Z" fill="#746968"/>
<path d="M306.427 359.087C268.559 359.087 269.681 359.505 269.681 358.157C269.681 354.981 269.414 353.756 270.584 353.756C308.453 353.756 307.331 353.338 307.331 354.684C307.331 357.86 307.597 359.087 306.427 359.087Z" fill="#9EBFD8"/>
<path d="M326.211 359.274C311.368 359.274 312.201 359.015 312.201 357.64C312.201 355.768 311.878 353.727 313.699 353.727C338.283 353.727 353.228 353.629 362.306 353.629C377.15 353.629 376.317 353.89 376.317 355.265C376.317 357.137 376.641 359.176 374.82 359.176C350.236 359.176 335.292 359.274 326.211 359.274Z" fill="#746968"/>
<path d="M306.427 371.711C268.559 371.711 269.681 372.129 269.681 370.783C269.681 367.605 269.414 366.38 270.584 366.38C308.453 366.38 307.331 365.962 307.331 367.31C307.331 370.486 307.597 371.711 306.427 371.711Z" fill="#9EBFD8"/>
<path d="M323.896 371.885C311.616 371.885 312.201 371.653 312.201 370.414C312.201 368.305 311.851 366.35 313.552 366.35C333.218 366.35 345.274 366.266 352.659 366.266C364.902 366.266 364.319 366.499 364.319 367.738C364.319 369.847 364.669 371.802 362.97 371.802C343.335 371.802 331.286 371.885 323.896 371.885Z" fill="#746968"/>
<path d="M323.863 384.924C311.62 384.924 312.201 384.691 312.201 383.454C312.201 381.346 311.851 379.39 313.552 379.39C333.19 379.39 345.24 379.305 352.63 379.305C364.906 379.305 364.319 379.539 364.319 380.776C364.319 382.885 364.669 384.839 362.97 384.839C343.304 384.839 331.249 384.924 323.863 384.924Z" fill="#746968"/>
<path d="M306.427 384.334C268.559 384.334 269.681 384.752 269.681 383.407C269.681 380.228 269.414 379.004 270.584 379.004C308.453 379.004 307.331 378.586 307.331 379.933C307.331 383.112 307.597 384.334 306.427 384.334Z" fill="#9EBFD8"/>
<path d="M348.48 394.322C337.772 394.322 338.26 394.108 338.26 392.954C338.26 390.77 337.892 388.797 339.519 388.797C356.448 388.797 366.866 388.718 373.274 388.718C383.981 388.718 383.493 388.935 383.493 390.087C383.493 392.27 383.863 394.246 382.237 394.246C365.305 394.246 354.887 394.322 348.48 394.322Z" fill="#746968"/>
<path d="M523.589 523.065C523.589 478.363 523.969 480.156 522.747 480.156C135.434 480.156 155.102 479.709 155.102 481.018V523.065C155.102 524.047 523.589 524.725 523.589 523.065Z" fill="#AE584B"/>
<path d="M499.96 515.012C353.794 515.012 359.392 516.408 359.392 511.787C359.392 491.119 358.401 487.993 362.533 487.993C508.699 487.993 503.102 486.594 503.102 491.216C503.102 511.884 504.094 515.012 499.96 515.012Z" fill="#D16A4B"/>
<path d="M431.247 506.998C423.942 506.998 423.935 495.647 431.247 495.647C438.552 495.647 438.56 506.998 431.247 506.998Z" fill="#AE584B"/>
<path d="M344.143 515.012C197.978 515.012 203.575 516.408 203.575 511.787C203.575 491.119 202.583 487.993 206.716 487.993C352.882 487.993 347.285 486.594 347.285 491.216C347.285 511.884 348.279 515.012 344.143 515.012Z" fill="#D16A4B"/>
<path d="M275.43 506.998C268.127 506.998 268.118 495.647 275.43 495.647C282.735 495.647 282.741 506.998 275.43 506.998Z" fill="#AE584B"/>
<path d="M215.377 535.818H476.476V523.929H215.377V535.818Z" fill="#D16A4B"/>
<path d="M484.362 526.361L514.915 698.954C515.94 704.749 508.985 704.266 508.052 700.683C460.653 518.583 460.223 523.734 465.816 523.781C481.904 523.912 483.795 523.152 484.362 526.361Z" fill="#AE584B"/>
<path d="M183.358 526.377C183.229 527.104 152.686 699.179 152.791 699.909C153.656 705.925 159.05 703.069 159.673 700.677C207.198 518.089 207.378 523.734 201.879 523.781C198.962 523.804 196.512 523.799 194.453 523.795C185.154 523.774 183.823 523.753 183.358 526.377Z" fill="#AE584B"/>
<path d="M203.669 559.268C203.888 559.971 255.664 726.609 256.092 727.202C259.61 732.095 263.062 726.972 262.519 724.56C220.923 540.454 223.664 545.352 218.831 548.043C204.687 555.92 202.704 556.164 203.669 559.268Z" fill="#AE584B"/>
<path d="M198.768 505.16L198.468 504.15C216.057 498.654 214.431 489.114 212.372 477.036C210.449 465.761 208.058 451.733 221.587 437.456L222.325 438.194C209.164 452.081 211.409 465.241 213.387 476.852C215.45 488.948 217.231 499.394 198.768 505.16Z" fill="#84534A"/>
<path d="M343.029 677.579C339.521 677.399 322.676 682.263 311.973 695.956C311.973 695.956 274.948 664.431 257.752 615.796L289.864 596.341C289.864 596.341 317.06 644.256 325.484 657.047C333.905 669.834 343.029 677.579 343.029 677.579Z" fill="#637690"/>
<path d="M258.469 616.059C274.456 660.837 307.641 691.319 311.897 695.096C321.506 683.152 335.984 677.847 341.578 677.075C338.899 674.604 331.687 667.538 324.998 657.385C317.135 645.442 292.638 602.415 289.653 597.167L258.469 616.059ZM312.056 696.806L311.597 696.416C311.225 696.102 274.256 664.23 257.2 616.001L257.035 615.53L290.073 595.516L290.368 596.04C290.641 596.517 317.653 644.082 325.967 656.708C334.242 669.272 343.314 677.041 343.403 677.119L344.763 678.271L343 678.18C340.199 678.029 323.39 682.309 312.428 696.329L312.056 696.806Z" fill="#3B3348"/>
<path d="M325.839 635.973C319.518 653.446 317.24 686.95 318.468 700.276C314.555 694.245 300.962 684.467 277.056 690.19L291.788 592.925C250.96 587.809 261.973 589.188 240.027 586.436C233.725 577.097 215.462 550.04 209.141 540.678C232.087 526.796 227.726 529.435 233.532 525.915C242.305 532.569 314.551 544.656 334.084 555.631C353.126 566.338 332.148 618.501 325.839 635.973Z" fill="#637690"/>
<path d="M290.848 687.867C304.838 687.867 313.753 693.647 317.732 698.315C316.814 683.222 319.392 652.067 325.289 635.765C325.736 634.529 326.254 633.12 326.829 631.566C334.076 611.901 351.051 565.859 333.803 556.157C323.321 550.269 297.371 544.013 274.477 538.492C255.019 533.8 238.152 529.733 233.508 526.628L231.93 527.585C229.181 529.253 229.181 529.253 216.967 536.642L209.982 540.866L240.36 585.872L292.458 592.403L277.767 689.409C282.532 688.329 286.896 687.867 290.848 687.867ZM319.27 702.593L317.98 700.609C314.172 694.742 300.747 685.136 277.189 690.776L276.345 690.978L276.478 690.097L291.116 593.445L239.696 587L239.545 586.778L208.302 540.489L216.374 535.604C228.586 528.218 228.586 528.218 231.335 526.55L233.57 525.195L233.88 525.431C237.819 528.416 255.755 532.743 274.743 537.323C297.712 542.861 323.745 549.136 334.366 555.105C352.508 565.305 335.903 610.346 327.925 631.991C327.35 633.542 326.833 634.951 326.387 636.184C320.268 653.1 317.757 686.176 319.051 700.219L319.27 702.593Z" fill="#3B3348"/>
<path d="M303.194 633.086H286.298L290.972 602.223C294.833 599.395 298.403 596.186 301.588 592.549H301.605C305.259 592.549 310.365 591.692 314.832 589.82C314.859 589.827 314.884 589.835 314.91 589.844C310.474 606.572 306.407 620.819 303.194 633.086ZM302.52 591.48L302.56 591.435L301.282 591.412C301.243 591.412 297.278 591.336 291.77 591.022L291.474 591.002C269.47 589.738 239.337 588.002 222.672 546.574C222.044 545.009 221.432 543.462 220.836 541.932C226.118 539.971 230.045 537.79 232.894 535.653C248.264 559.833 282.658 579.862 313.217 589.328C309.565 590.68 305.613 591.376 302.52 591.48Z" fill="#4F546C"/>
<path d="M286.298 633.086H285.705L290.306 602.703C290.529 602.546 290.751 602.385 290.972 602.223L286.298 633.086Z" fill="#3B3348"/>
<path d="M301.605 592.549L301.26 592.547C300.976 592.543 300.749 592.303 300.753 592.008C300.757 591.719 300.987 591.488 301.268 591.488C305.865 591.588 313.17 590.149 318.189 586.888C318.429 586.733 318.747 586.803 318.9 587.051C319.051 587.297 318.981 587.626 318.739 587.781C313.668 591.081 306.392 592.549 301.605 592.549Z" fill="#3B3348"/>
<path d="M381.371 480.246C386.547 471.421 404.267 466.826 414.71 480.156L381.371 480.246Z" fill="#9C9FA0"/>
<path d="M361.322 471.781C372.641 464.486 396.33 461.782 403.304 464.619C410.278 467.458 415.806 473.808 413.305 475.698C412.056 476.643 409.489 475.866 406.659 475.089C403.829 474.313 400.737 473.538 398.434 474.482C385.753 479.689 382.076 485.915 360.27 485.156L361.322 471.781Z" fill="#F99889"/>
<path d="M365.258 489.892C353.552 492.872 309.358 503.997 296.003 505.552C282.73 507.097 253.889 480.073 244.244 470.428C242.291 476.428 240.205 481.757 236.523 487.183C231.633 494.369 228.301 511.634 230.626 515.511C232.656 518.611 238.13 523.322 238.801 525.915C239.502 528.612 235.12 537.257 215.638 543.027C191.109 499.823 199.128 513.949 179.845 479.974C220.128 419.145 192.856 460.335 224.584 412.425C242.946 412.697 295.325 475.48 300.522 474.525C360.871 463.436 357.732 463.315 359.544 465.381C361.521 467.639 365.07 472.647 366.961 481.115C367.86 485.031 368.83 488.982 365.258 489.892Z" fill="#FFB7B7"/>
<path d="M180.536 480L215.913 542.318C234.68 536.654 238.851 528.442 238.235 526.07C237.875 524.678 235.732 522.331 233.838 520.264C232.478 518.772 231.186 517.359 230.328 516.122H230.049L230.041 515.676C227.67 511.197 231.236 493.905 236.042 486.836C239.622 481.564 241.689 476.388 243.688 470.238L243.983 469.33L244.653 469.996C261.564 486.908 285.136 506.206 295.937 504.956C309.133 503.418 352.225 492.591 365.117 489.311C367.813 488.621 367.467 485.984 366.506 481.718L366.389 481.251C364.524 472.899 361.027 467.976 359.108 465.784L358.887 465.517C358.015 464.445 357.533 464.511 332.84 469.133C324.865 470.626 314.4 472.588 300.625 475.117C298.521 475.509 292.183 469.307 279.221 456.373C261.119 438.315 236.391 413.645 224.888 413.036L206.357 441.012C204.104 444.412 201.903 447.737 180.536 480ZM215.361 543.733L179.152 479.951L179.36 479.636C200.92 447.079 203.128 443.745 205.388 440.338L224.278 411.818L224.592 411.824C236.422 411.998 261.63 437.148 280.037 455.511C289.262 464.715 298.767 474.258 300.42 473.934C314.191 471.403 324.657 469.444 332.629 467.951C358.455 463.115 358.461 463.112 359.786 464.747L359.981 464.98C361.938 467.219 365.477 472.182 367.424 480.515L367.589 481.197C368.47 485.063 369.466 489.44 365.398 490.476C352.49 493.763 309.338 504.606 296.071 506.151C282.083 507.787 252.02 478.974 244.502 471.522C242.559 477.379 240.486 482.395 237.001 487.524C232.106 494.726 229.014 511.46 231.093 515.142C231.918 516.404 233.33 517.949 234.694 519.441C236.873 521.826 238.931 524.075 239.368 525.76C240.188 528.922 235.393 537.802 215.799 543.604L215.361 543.733Z" fill="#2E5151"/>
<path d="M367.738 488.904C367.756 488.875 367.772 488.848 367.788 488.818C367.79 488.841 367.792 488.865 367.794 488.889C367.794 488.889 367.776 488.894 367.738 488.904Z" fill="#7F5D4E"/>
<path d="M220.404 540.818C216.516 530.75 213.348 521.486 210.516 513.001C215.284 509.469 220.704 503.348 221.512 493.487C223.009 475.38 209.503 473.402 213.976 454.132C217.434 439.234 227.224 433.698 232.472 424.639C240.469 433.759 250.904 454.264 257.161 463.673C264.532 474.749 286.108 497.716 295.325 498.255C295.455 498.264 295.598 498.268 295.753 498.268C305.042 498.268 354.176 484.404 366.318 480.937C366.341 481.041 366.366 481.145 366.389 481.251L366.506 481.718C367.468 485.983 367.813 488.621 365.117 489.31C352.225 492.591 309.133 503.418 295.937 504.956C295.602 504.994 295.257 505.013 294.899 505.013C283.683 505.013 261.041 486.384 244.653 469.996L243.983 469.33L243.725 470.13C241.54 468.309 239.541 466.886 238.673 466.886C238.597 466.886 238.531 466.896 238.471 466.92C234.266 468.541 227.153 486.096 225.049 495.558C223.503 502.531 224.948 509.204 229.615 514.501C229.727 514.955 229.87 515.35 230.041 515.676L230.049 516.122H230.328C231.186 517.359 232.478 518.772 233.838 520.264C235.732 522.331 237.875 524.678 238.235 526.07C238.799 528.241 235.358 535.296 220.404 540.818Z" fill="#FF9D9D"/>
<path d="M220.487 541.032C220.46 540.962 220.431 540.888 220.404 540.818C235.358 535.296 238.799 528.241 238.235 526.07C237.875 524.678 235.732 522.331 233.838 520.264C232.478 518.772 231.186 517.359 230.328 516.122H230.049L230.041 515.676C229.87 515.35 229.727 514.955 229.615 514.501C229.836 514.749 230.064 514.997 230.297 515.239C232.327 518.342 237.801 523.05 238.471 525.644C239.105 528.086 235.583 535.392 220.487 541.032ZM294.54 505.347C283.326 505.347 263 488.097 251.811 477.746C251.251 477.029 247.243 473.062 243.725 470.13L243.983 469.33L244.653 469.996C261.041 486.384 283.683 505.013 294.899 505.013C295.257 505.013 295.602 504.994 295.937 504.956C309.133 503.418 352.225 492.591 365.117 489.31C367.813 488.621 367.468 485.983 366.506 481.718L366.389 481.251C366.366 481.145 366.341 481.041 366.318 480.937C366.424 480.906 366.529 480.876 366.63 480.846C367.182 483.229 367.583 485.873 367.79 488.818C367.773 488.848 367.757 488.875 367.738 488.904C365.721 489.423 310.834 503.517 295.674 505.283C295.309 505.325 294.93 505.347 294.54 505.347Z" fill="#2E5151"/>
<path d="M293.614 482.374L293.39 482.323C293.134 482.194 293.027 481.88 293.151 481.614C293.998 479.808 296.786 475.339 297.262 474.851C297.464 474.648 297.787 474.65 297.987 474.851C298.188 475.055 298.19 475.391 297.992 475.598C297.677 475.931 294.945 480.224 294.079 482.077C293.99 482.263 293.804 482.374 293.614 482.374Z" fill="#2E5151"/>
<path d="M300.259 482.104C300.04 482.104 299.837 481.96 299.767 481.733C299.757 481.697 298.593 477.927 297.973 476.846C297.828 476.594 297.911 476.269 298.157 476.12C298.399 475.976 298.717 476.056 298.862 476.309C299.542 477.494 300.701 481.255 300.751 481.414C300.836 481.695 300.687 481.99 300.414 482.079L300.259 482.104Z" fill="#2E5151"/>
<path d="M244.24 470.958L243.855 470.78C243.134 469.95 236.798 462.625 236.267 461.808C236.11 461.564 236.174 461.235 236.41 461.073C236.645 460.912 236.966 460.975 237.125 461.218C237.497 461.791 241.813 466.831 244.626 470.079C244.814 470.298 244.796 470.63 244.583 470.826L244.24 470.958Z" fill="#2E5151"/>
<path d="M232.66 520.135L232.449 520.088C227.484 517.802 218.286 516.36 218.195 516.347C217.914 516.3 217.719 516.031 217.761 515.744C217.804 515.453 218.077 515.265 218.35 515.299C218.732 515.358 227.776 516.778 232.871 519.123C233.129 519.241 233.247 519.555 233.129 519.822C233.045 520.018 232.856 520.135 232.66 520.135Z" fill="#2E5151"/>
<path d="M231.562 343.437C233.018 361.941 247.371 363.116 234.196 367.889C234.196 367.889 236.3 384.506 223.009 388.695L210.243 363.904L219.323 346.813L231.562 343.437Z" fill="#F99889"/>
<path d="M235.647 415.4C233.532 431.251 218.451 434.85 213.976 454.132C209.503 473.402 223.009 475.38 221.512 493.487C220.028 511.586 203.008 517.089 203.008 517.089C202.857 516.973 122.723 455.488 122.723 455.295C122.992 455.295 119.878 447.962 136.548 438.956C153.29 430.352 125.362 410.889 139.043 393.153C151.021 377.618 161.597 400.001 168.268 354.155C174.927 308.312 206.081 309.212 216.605 317.042C247.673 318.576 241.695 342.395 220.812 366.221C209.058 379.64 237.749 399.547 235.647 415.4Z" fill="#4D3930"/>
<path d="M235.647 415.4C233.532 431.251 218.451 434.85 213.976 454.132C209.503 473.402 223.007 475.38 221.512 493.487C220.028 511.586 203.009 517.089 203.009 517.089L202.874 516.994L175.278 452.957C160.332 423.014 192.199 413.864 204.936 391.893C213.709 376.763 208.442 362.348 211.431 353.521C214.41 344.696 226.523 352.804 231.606 338.758C235.624 327.669 231.006 321.848 228.884 319.89C248.041 328.189 234.75 350.321 220.812 366.221C209.058 379.64 237.749 399.547 235.647 415.4Z" fill="#44322B"/>
<path d="M160.196 455.295L134.661 464.566C127.476 459.019 122.723 455.338 122.723 455.295C122.992 455.295 119.878 447.962 136.548 438.956L136.856 438.776C147.867 436.997 154.155 432.214 150.361 422.331C141.009 397.904 176.324 399.354 174.927 375.683C174.927 375.683 181.247 393.968 163.351 403.958C143.587 414.997 179.294 440.671 160.196 455.295Z" fill="#44322B"/>
<path d="M226.343 361.451C223.993 351.429 209.871 356.753 220.991 374.509L226.343 361.451Z" fill="#F99889"/>
<path d="M218.271 371.178C218.271 371.178 218.238 371.503 218.176 372.114C218.114 372.725 217.994 373.622 218.025 374.764C217.984 375.899 218.108 377.287 218.288 378.86C218.507 380.432 218.836 382.189 219.276 384.094C219.712 385.998 220.27 388.041 220.876 390.208C221.471 392.372 222.143 394.651 222.651 397.075C223.176 399.487 223.635 402.034 223.637 404.682C223.633 407.311 223.251 410.072 222.008 412.512C220.803 414.925 219.175 417.015 217.535 418.99C215.888 420.964 214.185 422.81 212.56 424.612C209.308 428.2 206.314 431.591 204.318 434.909C203.317 436.559 202.537 438.156 202.005 439.637C201.46 441.119 201.19 442.479 201.079 443.612C201.01 444.176 200.98 444.681 200.987 445.127C200.971 445.57 200.972 445.949 201.007 446.253C201.052 446.867 201.076 447.192 201.076 447.192C201.076 447.192 201.03 446.869 200.944 446.26C200.889 445.954 200.861 445.577 200.846 445.129C200.808 444.681 200.809 444.168 200.851 443.59C200.907 442.438 201.112 441.036 201.592 439.495C202.054 437.952 202.772 436.269 203.754 434.559C205.706 431.124 208.581 427.53 211.812 423.905C213.42 422.085 215.098 420.225 216.704 418.265C218.298 416.304 219.857 414.241 220.965 411.971C221.514 410.87 221.975 409.669 222.176 408.427L222.374 407.511L222.455 406.568C222.507 405.94 222.585 405.316 222.546 404.684C222.573 402.165 222.153 399.676 221.661 397.295C220.655 392.534 219.394 388.109 218.633 384.239C218.234 382.308 217.996 380.506 217.858 378.906C217.752 377.304 217.699 375.904 217.8 374.749C217.819 373.591 218.017 372.712 218.114 372.105C218.217 371.5 218.271 371.178 218.271 371.178Z" fill="#382823"/>
<path d="M149.662 445.812C149.419 445.812 149.192 445.653 149.109 445.405C146.377 437.214 150.132 432.508 153.762 427.958C156.166 424.945 158.436 422.099 158.908 418.294C159.456 413.874 157.112 410.277 154.398 406.11C151.246 401.27 147.675 395.789 147.675 387.568C147.675 378.24 155.322 371.732 161.466 366.501C165.363 363.182 168.729 360.318 168.729 357.848C168.729 357.514 168.992 357.245 169.315 357.245C169.639 357.245 169.9 357.514 169.9 357.848C169.9 360.882 166.508 363.772 162.213 367.426C156.256 372.496 148.844 378.806 148.844 387.568C148.844 395.424 152.312 400.746 155.371 405.441C158.099 409.626 160.674 413.577 160.07 418.447C159.555 422.592 157.071 425.707 154.669 428.72C151.083 433.211 147.696 437.458 150.216 445.017C150.321 445.331 150.158 445.672 149.852 445.778L149.662 445.812Z" fill="#382823"/>
<path d="M194.583 485.082L194.197 484.931C193.955 484.714 193.93 484.335 194.143 484.084C194.191 484.025 199.058 478.131 198.21 465.428C197.936 461.307 194.524 457.265 190.912 452.985C183.453 444.145 174.169 433.142 188.879 415.816C209.232 391.838 206.714 383.328 203.228 371.558L202.796 370.089C202.703 369.771 202.878 369.436 203.188 369.342C203.496 369.247 203.824 369.427 203.917 369.743L204.349 371.206C207.944 383.352 210.54 392.124 189.761 416.603C175.721 433.145 184.261 443.266 191.797 452.195C195.541 456.632 199.077 460.826 199.379 465.346C200.262 478.593 195.237 484.627 195.023 484.876L194.583 485.082Z" fill="#382823"/>
<path d="M301.272 592.013C271.614 626.057 209.503 622.642 181.422 620.481C153.351 618.323 144.227 610.934 134.218 587.516C124.218 564.096 111.59 506.093 115.095 475.117C119.285 438.078 156.171 439.83 171.361 448.089C200.224 463.726 201.379 495.214 222.132 546.804C239.014 588.773 270.074 590.374 291.737 591.623C297.324 591.941 301.272 592.013 301.272 592.013Z" fill="#C280E7"/>
<path d="M150.36 443.797C144.058 443.797 137.615 445.047 132.09 448.03C122.661 453.118 117.138 462.258 115.677 475.184C112.179 506.098 124.643 563.595 134.754 587.274C144.94 611.106 154.544 617.81 181.465 619.88C203.224 621.556 269.024 626.618 299.972 592.581C298.366 592.534 295.377 592.431 291.704 592.223L291.408 592.206C270.353 590.994 238.537 589.161 221.591 547.033C215.737 532.481 211.438 519.517 207.645 508.082C197.991 478.972 191.612 459.739 171.087 448.62C165.732 445.71 158.156 443.797 150.36 443.797ZM210.001 622.357C197.986 622.357 187.786 621.574 181.378 621.08C153.899 618.966 144.094 612.116 133.682 587.756C123.521 563.958 110.994 506.146 114.513 475.047C116.002 461.886 121.891 452.176 131.547 446.965C144.256 440.102 161.684 442.145 171.636 447.556C192.571 458.901 199.009 478.31 208.752 507.696C212.541 519.116 216.833 532.056 222.672 546.574C239.337 588.002 269.47 589.738 291.474 591.002L291.77 591.022C297.278 591.336 301.243 591.412 301.282 591.412L302.56 591.435L301.708 592.413C279.725 617.648 239.43 622.357 210.001 622.357Z" fill="#D16A4B"/>
<path d="M210.034 621.156C198.047 621.156 187.854 620.373 181.465 619.88C154.544 617.81 144.94 611.106 134.754 587.274C124.643 563.595 112.179 506.097 115.677 475.184C117.138 462.258 122.661 453.118 132.09 448.03C137.615 445.047 144.058 443.796 150.36 443.796C157.74 443.796 164.923 445.511 170.211 448.161C167.014 448.488 162.803 449.912 158.258 454.088C148.526 463.021 165.423 574.986 177.71 592.066C187.029 605.018 209.749 609.659 228.555 609.659C234.547 609.659 240.141 609.188 244.779 608.365C259.683 605.716 281.525 596.252 290.56 592.157C290.844 592.174 291.127 592.189 291.408 592.206L291.703 592.223C295.377 592.431 298.366 592.534 299.972 592.581C278.11 616.624 238.867 621.158 210.034 621.156Z" fill="#A054E1"/>
<path d="M210.408 621.744C199.13 621.744 189.028 621.067 181.422 620.481C153.351 618.323 144.227 610.934 134.218 587.516C124.218 564.096 111.59 506.093 115.095 475.117C117.847 450.78 134.719 443.19 150.274 443.19C158.393 443.19 166.151 445.256 171.361 448.089C170.994 448.098 170.611 448.121 170.211 448.162C164.923 445.511 157.74 443.797 150.36 443.797C144.058 443.797 137.615 445.047 132.09 448.03C122.661 453.119 117.138 462.258 115.677 475.185C112.179 506.098 124.643 563.595 134.754 587.274C144.94 611.106 154.544 617.81 181.465 619.88C187.854 620.373 198.047 621.156 210.034 621.156C238.867 621.158 278.111 616.624 299.972 592.581C298.366 592.534 295.377 592.431 291.704 592.223L291.408 592.206C291.127 592.189 290.844 592.174 290.56 592.157C290.98 591.966 291.373 591.787 291.737 591.622C297.324 591.941 301.272 592.013 301.272 592.013C279.648 616.836 240.769 621.744 210.408 621.744Z" fill="#B85D45"/>
<path d="M544.414 521.955C710.43 521.955 701.035 523.016 701.69 519.623C718.973 429.971 720.209 430.831 715.374 430.831C549.356 430.831 558.751 429.772 558.098 433.165C540.813 522.819 539.581 521.955 544.414 521.955Z" fill="white"/>
<path d="M544.414 520.837C584.476 520.837 614.58 520.898 636.564 520.946C684.962 521.049 698.739 521.075 700.552 520.169L700.554 520.088C700.562 519.875 700.574 519.651 700.62 519.407C704.514 499.214 707.54 483.879 709.971 471.556C715.345 444.325 717.57 433.052 716.524 432.03C716.414 431.947 715.875 431.941 715.511 431.949H715.374C675.313 431.949 645.206 431.888 623.225 431.843C574.823 431.741 561.048 431.714 559.237 432.622L559.235 432.703C559.227 432.912 559.214 433.139 559.167 433.382C555.274 453.577 552.248 468.908 549.817 481.231C544.441 508.464 542.219 519.735 543.263 520.761C543.374 520.839 543.916 520.855 544.276 520.837H544.414ZM668.653 523.231C660.262 523.231 649.745 523.209 636.559 523.184C614.578 523.137 584.474 523.076 544.414 523.076H544.278C543.337 523.076 542.293 523.078 541.574 522.174C539.922 520.105 540.956 514.868 547.682 480.787C550.113 468.466 553.135 453.137 557.027 432.946L557.056 432.618C557.139 430.383 558.437 429.982 566.308 429.747C574.459 429.503 590.753 429.539 623.229 429.607C645.208 429.651 675.315 429.715 715.374 429.715H715.509C716.431 429.706 717.491 429.71 718.215 430.617C719.866 432.684 718.833 437.923 712.106 472.002C709.676 484.32 706.651 499.654 702.759 519.84L702.732 520.173C702.65 522.405 701.354 522.808 693.482 523.042C688.639 523.186 680.923 523.231 668.653 523.231Z" fill="#EEE4D9"/>
<path d="M695.055 462.915C693.457 462.915 691.481 462.847 689.096 462.847C685.766 462.847 686.485 459.336 686.485 451.225C686.485 448.842 688.149 448.482 691.835 448.482C693.435 448.482 695.415 448.549 697.807 448.549C701.137 448.549 700.413 452.062 700.413 460.167C700.413 462.554 698.747 462.915 695.055 462.915Z" fill="#CEDFEB"/>
<path d="M613.433 462.847C669.142 462.847 669.248 463.946 669.248 460.167C669.248 452.061 669.969 448.549 666.639 448.549C610.93 448.549 610.827 447.448 610.827 451.225V460.167C610.827 461.649 611.992 462.847 613.433 462.847Z" fill="#9EBFD8"/>
<path d="M569.672 462.847C591.495 462.847 593.937 463.741 593.937 460.167C593.937 452.062 594.658 448.549 591.328 448.549C569.502 448.549 567.063 447.656 567.063 451.225C567.063 459.336 566.342 462.847 569.672 462.847Z" fill="#C280E7"/>
<path d="M690.878 482.737C689.28 482.737 687.304 482.668 684.919 482.668C681.589 482.668 682.31 479.157 682.31 471.047C682.31 468.662 683.976 468.303 687.668 468.303C689.266 468.303 691.244 468.369 693.629 468.369C696.961 468.369 696.238 471.883 696.238 479.989C696.238 482.376 694.57 482.737 690.878 482.737Z" fill="#CEDFEB"/>
<path d="M609.258 482.669C664.965 482.669 665.073 483.768 665.073 479.989C665.073 471.883 665.792 468.371 662.462 468.371C606.755 468.371 606.649 467.269 606.649 471.047C606.649 479.157 605.928 482.669 609.258 482.669Z" fill="#9EBFD8"/>
<path d="M565.496 482.669C587.32 482.669 589.759 483.562 589.759 479.989C589.759 471.883 590.48 468.371 587.153 468.371C565.327 468.371 562.885 467.478 562.885 471.047C562.885 479.158 562.166 482.669 565.496 482.669Z" fill="#C280E7"/>
<path d="M687.368 504.309C685.768 504.309 683.792 504.241 681.404 504.241C678.074 504.241 678.796 500.73 678.796 492.619C678.796 490.234 680.464 489.875 684.154 489.875C685.751 489.875 687.73 489.943 690.115 489.943C693.445 489.943 692.726 493.455 692.726 501.563C692.726 503.948 691.06 504.309 687.368 504.309Z" fill="#CEDFEB"/>
<path d="M605.746 504.241C661.453 504.241 661.559 505.338 661.559 501.563C661.559 493.455 662.278 489.943 658.95 489.943C603.243 489.943 603.135 488.841 603.135 492.619C603.135 500.73 602.414 504.241 605.746 504.241Z" fill="#9EBFD8"/>
<path d="M561.982 504.241C583.806 504.241 586.247 505.134 586.247 501.563C586.247 493.455 586.969 489.943 583.636 489.943C561.815 489.943 559.373 489.05 559.373 492.619C559.373 500.73 558.65 504.241 561.982 504.241Z" fill="#C280E7"/>
</g>
<defs>
<clipPath id="clip0_6_56">
<rect width="694" height="643" fill="white"/>
</clipPath>
</defs>
</svg>
